<svg xmlns="http://www.w3.org/2000/svg" viewBox="0 0 1594.5 1116.0" fill="#1A1A1A" fill-rule="evenodd">
  <g transform="translate(576.6 0) scale(1.1994)">
    <g transform="translate(-88 -66)"><path d="M 374.0 74.0 L 379.0 74.0 L 379.0 75.0 L 383.0 76.0 L 383.0 77.0 L 385.0 78.0 L 385.0 80.0 L 386.0 80.0 L 386.0 83.0 L 387.0 83.0 L 387.0 88.0 L 386.0 88.0 L 386.0 99.0 L 385.0 99.0 L 384.0 109.0 L 383.0 109.0 L 383.0 112.0 L 382.0 112.0 L 382.0 115.0 L 381.0 115.0 L 380.0 121.0 L 379.0 121.0 L 379.0 123.0 L 378.0 123.0 L 378.0 126.0 L 377.0 126.0 L 377.0 128.0 L 376.0 128.0 L 376.0 130.0 L 375.0 130.0 L 375.0 132.0 L 374.0 132.0 L 373.0 136.0 L 371.0 137.0 L 370.0 141.0 L 368.0 142.0 L 368.0 144.0 L 366.0 145.0 L 366.0 147.0 L 364.0 148.0 L 364.0 150.0 L 361.0 152.0 L 361.0 154.0 L 360.0 154.0 L 360.0 155.0 L 356.0 158.0 L 356.0 160.0 L 355.0 160.0 L 355.0 161.0 L 354.0 161.0 L 354.0 162.0 L 353.0 162.0 L 353.0 163.0 L 352.0 163.0 L 352.0 164.0 L 351.0 164.0 L 351.0 165.0 L 350.0 165.0 L 350.0 166.0 L 349.0 166.0 L 349.0 167.0 L 348.0 167.0 L 348.0 168.0 L 347.0 168.0 L 347.0 169.0 L 346.0 169.0 L 346.0 170.0 L 345.0 170.0 L 345.0 171.0 L 344.0 171.0 L 344.0 172.0 L 343.0 172.0 L 343.0 173.0 L 342.0 173.0 L 342.0 174.0 L 341.0 174.0 L 341.0 175.0 L 340.0 175.0 L 340.0 176.0 L 339.0 176.0 L 339.0 177.0 L 338.0 177.0 L 336.0 180.0 L 334.0 180.0 L 334.0 181.0 L 333.0 181.0 L 333.0 182.0 L 332.0 182.0 L 330.0 185.0 L 328.0 185.0 L 328.0 186.0 L 327.0 186.0 L 325.0 189.0 L 323.0 189.0 L 321.0 192.0 L 319.0 192.0 L 317.0 195.0 L 315.0 195.0 L 313.0 198.0 L 311.0 198.0 L 310.0 200.0 L 308.0 200.0 L 306.0 203.0 L 304.0 203.0 L 303.0 205.0 L 301.0 205.0 L 300.0 207.0 L 298.0 207.0 L 298.0 208.0 L 297.0 208.0 L 297.0 209.0 L 295.0 209.0 L 294.0 211.0 L 290.0 212.0 L 289.0 214.0 L 287.0 214.0 L 286.0 216.0 L 284.0 216.0 L 284.0 217.0 L 282.0 217.0 L 281.0 219.0 L 277.0 220.0 L 276.0 222.0 L 274.0 222.0 L 274.0 223.0 L 270.0 224.0 L 269.0 226.0 L 267.0 226.0 L 267.0 227.0 L 263.0 228.0 L 262.0 230.0 L 260.0 230.0 L 260.0 231.0 L 258.0 231.0 L 258.0 232.0 L 256.0 232.0 L 256.0 233.0 L 254.0 233.0 L 253.0 235.0 L 251.0 235.0 L 251.0 236.0 L 249.0 236.0 L 249.0 237.0 L 247.0 237.0 L 247.0 238.0 L 245.0 238.0 L 245.0 239.0 L 241.0 240.0 L 240.0 242.0 L 238.0 242.0 L 238.0 243.0 L 236.0 243.0 L 236.0 244.0 L 234.0 244.0 L 234.0 245.0 L 232.0 245.0 L 232.0 246.0 L 230.0 246.0 L 230.0 247.0 L 226.0 248.0 L 225.0 250.0 L 223.0 250.0 L 223.0 251.0 L 221.0 251.0 L 221.0 252.0 L 219.0 252.0 L 219.0 253.0 L 217.0 253.0 L 217.0 254.0 L 215.0 254.0 L 215.0 255.0 L 211.0 256.0 L 210.0 258.0 L 208.0 258.0 L 208.0 259.0 L 206.0 259.0 L 206.0 260.0 L 202.0 261.0 L 201.0 263.0 L 199.0 263.0 L 199.0 264.0 L 195.0 265.0 L 194.0 267.0 L 190.0 268.0 L 189.0 270.0 L 187.0 270.0 L 186.0 272.0 L 184.0 272.0 L 184.0 273.0 L 183.0 273.0 L 183.0 274.0 L 181.0 274.0 L 181.0 275.0 L 183.0 275.0 L 185.0 278.0 L 187.0 278.0 L 187.0 279.0 L 189.0 279.0 L 189.0 280.0 L 191.0 280.0 L 191.0 281.0 L 193.0 281.0 L 193.0 282.0 L 195.0 282.0 L 195.0 283.0 L 197.0 283.0 L 197.0 284.0 L 200.0 284.0 L 200.0 285.0 L 202.0 285.0 L 202.0 286.0 L 208.0 287.0 L 208.0 288.0 L 210.0 288.0 L 210.0 289.0 L 213.0 289.0 L 213.0 290.0 L 216.0 290.0 L 216.0 291.0 L 219.0 291.0 L 219.0 292.0 L 222.0 292.0 L 222.0 293.0 L 225.0 293.0 L 225.0 294.0 L 228.0 294.0 L 228.0 295.0 L 234.0 296.0 L 234.0 297.0 L 238.0 297.0 L 238.0 298.0 L 241.0 298.0 L 241.0 299.0 L 244.0 299.0 L 244.0 300.0 L 248.0 300.0 L 248.0 301.0 L 251.0 301.0 L 251.0 302.0 L 254.0 302.0 L 254.0 303.0 L 258.0 303.0 L 258.0 304.0 L 261.0 304.0 L 261.0 305.0 L 265.0 305.0 L 265.0 306.0 L 268.0 306.0 L 268.0 307.0 L 271.0 307.0 L 271.0 308.0 L 275.0 308.0 L 275.0 309.0 L 282.0 310.0 L 282.0 311.0 L 285.0 311.0 L 285.0 312.0 L 289.0 312.0 L 289.0 313.0 L 292.0 313.0 L 292.0 314.0 L 295.0 314.0 L 295.0 315.0 L 299.0 315.0 L 299.0 316.0 L 302.0 316.0 L 302.0 317.0 L 305.0 317.0 L 305.0 318.0 L 309.0 318.0 L 309.0 319.0 L 312.0 319.0 L 312.0 320.0 L 315.0 320.0 L 315.0 321.0 L 318.0 321.0 L 318.0 322.0 L 321.0 322.0 L 321.0 323.0 L 324.0 323.0 L 324.0 324.0 L 328.0 324.0 L 328.0 325.0 L 334.0 326.0 L 334.0 327.0 L 336.0 327.0 L 336.0 328.0 L 339.0 328.0 L 339.0 329.0 L 342.0 329.0 L 342.0 330.0 L 348.0 331.0 L 348.0 332.0 L 350.0 332.0 L 350.0 333.0 L 356.0 334.0 L 356.0 335.0 L 358.0 335.0 L 358.0 336.0 L 360.0 336.0 L 360.0 337.0 L 363.0 337.0 L 363.0 338.0 L 365.0 338.0 L 365.0 339.0 L 367.0 339.0 L 367.0 340.0 L 370.0 340.0 L 370.0 341.0 L 372.0 341.0 L 372.0 342.0 L 374.0 342.0 L 374.0 343.0 L 376.0 343.0 L 376.0 344.0 L 380.0 345.0 L 381.0 347.0 L 385.0 348.0 L 386.0 350.0 L 388.0 350.0 L 389.0 352.0 L 391.0 352.0 L 393.0 355.0 L 395.0 355.0 L 395.0 356.0 L 396.0 356.0 L 396.0 357.0 L 397.0 357.0 L 397.0 358.0 L 400.0 360.0 L 400.0 362.0 L 402.0 363.0 L 402.0 365.0 L 403.0 365.0 L 403.0 366.0 L 404.0 366.0 L 404.0 368.0 L 405.0 368.0 L 405.0 371.0 L 406.0 371.0 L 406.0 383.0 L 405.0 383.0 L 405.0 386.0 L 404.0 386.0 L 404.0 388.0 L 403.0 388.0 L 402.0 392.0 L 400.0 393.0 L 400.0 395.0 L 399.0 395.0 L 399.0 396.0 L 398.0 396.0 L 398.0 397.0 L 397.0 397.0 L 397.0 398.0 L 396.0 398.0 L 396.0 399.0 L 395.0 399.0 L 395.0 400.0 L 394.0 400.0 L 394.0 401.0 L 393.0 401.0 L 393.0 402.0 L 392.0 402.0 L 390.0 405.0 L 388.0 405.0 L 388.0 406.0 L 387.0 406.0 L 385.0 409.0 L 383.0 409.0 L 381.0 412.0 L 379.0 412.0 L 378.0 414.0 L 376.0 414.0 L 375.0 416.0 L 373.0 416.0 L 372.0 418.0 L 370.0 418.0 L 370.0 419.0 L 369.0 419.0 L 369.0 420.0 L 367.0 420.0 L 366.0 422.0 L 362.0 423.0 L 361.0 425.0 L 357.0 426.0 L 356.0 428.0 L 354.0 428.0 L 354.0 429.0 L 352.0 429.0 L 352.0 430.0 L 348.0 431.0 L 347.0 433.0 L 345.0 433.0 L 345.0 434.0 L 343.0 434.0 L 343.0 435.0 L 341.0 435.0 L 341.0 436.0 L 339.0 436.0 L 339.0 437.0 L 335.0 438.0 L 334.0 440.0 L 332.0 440.0 L 332.0 441.0 L 330.0 441.0 L 330.0 442.0 L 328.0 442.0 L 328.0 443.0 L 326.0 443.0 L 326.0 444.0 L 324.0 444.0 L 324.0 445.0 L 322.0 445.0 L 322.0 446.0 L 320.0 446.0 L 320.0 447.0 L 318.0 447.0 L 318.0 448.0 L 316.0 448.0 L 316.0 449.0 L 314.0 449.0 L 314.0 450.0 L 312.0 450.0 L 312.0 451.0 L 310.0 451.0 L 310.0 452.0 L 308.0 452.0 L 308.0 453.0 L 306.0 453.0 L 306.0 454.0 L 304.0 454.0 L 304.0 455.0 L 301.0 455.0 L 301.0 456.0 L 299.0 456.0 L 299.0 457.0 L 297.0 457.0 L 297.0 458.0 L 295.0 458.0 L 295.0 459.0 L 293.0 459.0 L 293.0 460.0 L 291.0 460.0 L 291.0 461.0 L 289.0 461.0 L 289.0 462.0 L 287.0 462.0 L 287.0 463.0 L 285.0 463.0 L 285.0 464.0 L 282.0 464.0 L 282.0 465.0 L 280.0 465.0 L 280.0 466.0 L 278.0 466.0 L 278.0 467.0 L 276.0 467.0 L 276.0 468.0 L 274.0 468.0 L 274.0 469.0 L 272.0 469.0 L 272.0 470.0 L 269.0 470.0 L 269.0 471.0 L 267.0 471.0 L 267.0 472.0 L 265.0 472.0 L 265.0 473.0 L 263.0 473.0 L 263.0 474.0 L 261.0 474.0 L 261.0 475.0 L 258.0 475.0 L 258.0 476.0 L 256.0 476.0 L 256.0 477.0 L 254.0 477.0 L 254.0 478.0 L 250.0 479.0 L 250.0 480.0 L 247.0 480.0 L 247.0 481.0 L 245.0 481.0 L 245.0 482.0 L 243.0 482.0 L 243.0 483.0 L 241.0 483.0 L 241.0 484.0 L 238.0 484.0 L 238.0 485.0 L 236.0 485.0 L 236.0 486.0 L 234.0 486.0 L 234.0 487.0 L 232.0 487.0 L 232.0 488.0 L 229.0 488.0 L 229.0 489.0 L 227.0 489.0 L 227.0 490.0 L 225.0 490.0 L 225.0 491.0 L 223.0 491.0 L 223.0 492.0 L 220.0 492.0 L 220.0 493.0 L 218.0 493.0 L 218.0 494.0 L 216.0 494.0 L 216.0 495.0 L 214.0 495.0 L 214.0 496.0 L 211.0 496.0 L 211.0 497.0 L 209.0 497.0 L 209.0 498.0 L 207.0 498.0 L 207.0 499.0 L 205.0 499.0 L 205.0 500.0 L 202.0 500.0 L 202.0 501.0 L 200.0 501.0 L 200.0 502.0 L 198.0 502.0 L 198.0 503.0 L 196.0 503.0 L 196.0 504.0 L 194.0 504.0 L 194.0 505.0 L 191.0 505.0 L 191.0 506.0 L 189.0 506.0 L 189.0 507.0 L 187.0 507.0 L 187.0 508.0 L 185.0 508.0 L 185.0 509.0 L 182.0 509.0 L 182.0 510.0 L 180.0 510.0 L 180.0 511.0 L 178.0 511.0 L 178.0 512.0 L 176.0 512.0 L 176.0 513.0 L 172.0 514.0 L 172.0 515.0 L 169.0 515.0 L 169.0 516.0 L 167.0 516.0 L 167.0 517.0 L 165.0 517.0 L 165.0 518.0 L 163.0 518.0 L 163.0 519.0 L 161.0 519.0 L 161.0 520.0 L 159.0 520.0 L 159.0 521.0 L 157.0 521.0 L 157.0 522.0 L 154.0 522.0 L 154.0 523.0 L 152.0 523.0 L 152.0 524.0 L 150.0 524.0 L 150.0 525.0 L 148.0 525.0 L 148.0 526.0 L 146.0 526.0 L 146.0 527.0 L 144.0 527.0 L 144.0 528.0 L 142.0 528.0 L 142.0 529.0 L 140.0 529.0 L 140.0 530.0 L 136.0 531.0 L 135.0 533.0 L 133.0 533.0 L 133.0 534.0 L 131.0 534.0 L 131.0 535.0 L 129.0 535.0 L 129.0 536.0 L 127.0 536.0 L 127.0 537.0 L 126.0 537.0 L 126.0 538.0 L 136.0 538.0 L 136.0 539.0 L 154.0 539.0 L 154.0 540.0 L 292.0 540.0 L 292.0 539.0 L 332.0 539.0 L 332.0 538.0 L 365.0 538.0 L 365.0 537.0 L 394.0 537.0 L 394.0 536.0 L 443.0 535.0 L 443.0 536.0 L 445.0 536.0 L 445.0 537.0 L 448.0 539.0 L 448.0 541.0 L 449.0 541.0 L 449.0 548.0 L 448.0 548.0 L 447.0 552.0 L 445.0 552.0 L 444.0 554.0 L 441.0 554.0 L 441.0 555.0 L 396.0 556.0 L 396.0 557.0 L 368.0 557.0 L 368.0 558.0 L 335.0 558.0 L 335.0 559.0 L 297.0 559.0 L 297.0 560.0 L 286.0 560.0 L 286.0 719.0 L 285.0 719.0 L 285.0 722.0 L 284.0 722.0 L 282.0 725.0 L 280.0 725.0 L 280.0 726.0 L 272.0 726.0 L 272.0 725.0 L 270.0 725.0 L 270.0 724.0 L 267.0 722.0 L 267.0 719.0 L 266.0 719.0 L 266.0 560.0 L 195.0 561.0 L 195.0 560.0 L 152.0 560.0 L 152.0 559.0 L 135.0 559.0 L 135.0 558.0 L 116.0 557.0 L 116.0 556.0 L 111.0 556.0 L 111.0 555.0 L 107.0 555.0 L 107.0 554.0 L 102.0 553.0 L 102.0 552.0 L 101.0 552.0 L 101.0 551.0 L 98.0 549.0 L 98.0 547.0 L 97.0 547.0 L 97.0 545.0 L 96.0 545.0 L 96.0 538.0 L 97.0 538.0 L 97.0 536.0 L 98.0 536.0 L 99.0 532.0 L 100.0 532.0 L 100.0 531.0 L 101.0 531.0 L 103.0 528.0 L 105.0 528.0 L 107.0 525.0 L 109.0 525.0 L 109.0 524.0 L 110.0 524.0 L 110.0 523.0 L 112.0 523.0 L 113.0 521.0 L 117.0 520.0 L 118.0 518.0 L 120.0 518.0 L 120.0 517.0 L 122.0 517.0 L 122.0 516.0 L 126.0 515.0 L 127.0 513.0 L 131.0 512.0 L 131.0 511.0 L 133.0 511.0 L 133.0 510.0 L 135.0 510.0 L 135.0 509.0 L 137.0 509.0 L 137.0 508.0 L 139.0 508.0 L 139.0 507.0 L 141.0 507.0 L 141.0 506.0 L 143.0 506.0 L 143.0 505.0 L 145.0 505.0 L 145.0 504.0 L 148.0 504.0 L 148.0 503.0 L 150.0 503.0 L 150.0 502.0 L 152.0 502.0 L 152.0 501.0 L 154.0 501.0 L 154.0 500.0 L 156.0 500.0 L 156.0 499.0 L 158.0 499.0 L 158.0 498.0 L 160.0 498.0 L 160.0 497.0 L 162.0 497.0 L 162.0 496.0 L 165.0 496.0 L 165.0 495.0 L 167.0 495.0 L 167.0 494.0 L 169.0 494.0 L 169.0 493.0 L 171.0 493.0 L 171.0 492.0 L 173.0 492.0 L 173.0 491.0 L 176.0 491.0 L 176.0 490.0 L 178.0 490.0 L 178.0 489.0 L 180.0 489.0 L 180.0 488.0 L 182.0 488.0 L 182.0 487.0 L 185.0 487.0 L 185.0 486.0 L 187.0 486.0 L 187.0 485.0 L 189.0 485.0 L 189.0 484.0 L 191.0 484.0 L 191.0 483.0 L 193.0 483.0 L 193.0 482.0 L 196.0 482.0 L 196.0 481.0 L 198.0 481.0 L 198.0 480.0 L 200.0 480.0 L 200.0 479.0 L 202.0 479.0 L 202.0 478.0 L 205.0 478.0 L 205.0 477.0 L 207.0 477.0 L 207.0 476.0 L 209.0 476.0 L 209.0 475.0 L 211.0 475.0 L 211.0 474.0 L 214.0 474.0 L 214.0 473.0 L 216.0 473.0 L 216.0 472.0 L 218.0 472.0 L 218.0 471.0 L 220.0 471.0 L 220.0 470.0 L 223.0 470.0 L 223.0 469.0 L 225.0 469.0 L 225.0 468.0 L 227.0 468.0 L 227.0 467.0 L 229.0 467.0 L 229.0 466.0 L 232.0 466.0 L 232.0 465.0 L 234.0 465.0 L 234.0 464.0 L 236.0 464.0 L 236.0 463.0 L 238.0 463.0 L 238.0 462.0 L 240.0 462.0 L 240.0 461.0 L 243.0 461.0 L 243.0 460.0 L 245.0 460.0 L 245.0 459.0 L 247.0 459.0 L 247.0 458.0 L 249.0 458.0 L 249.0 457.0 L 252.0 457.0 L 252.0 456.0 L 254.0 456.0 L 254.0 455.0 L 256.0 455.0 L 256.0 454.0 L 258.0 454.0 L 258.0 453.0 L 260.0 453.0 L 260.0 452.0 L 262.0 452.0 L 262.0 451.0 L 265.0 451.0 L 265.0 450.0 L 267.0 450.0 L 267.0 449.0 L 269.0 449.0 L 269.0 448.0 L 271.0 448.0 L 271.0 447.0 L 273.0 447.0 L 273.0 446.0 L 275.0 446.0 L 275.0 445.0 L 278.0 445.0 L 278.0 444.0 L 280.0 444.0 L 280.0 443.0 L 282.0 443.0 L 282.0 442.0 L 284.0 442.0 L 284.0 441.0 L 286.0 441.0 L 286.0 440.0 L 288.0 440.0 L 288.0 439.0 L 290.0 439.0 L 290.0 438.0 L 292.0 438.0 L 292.0 437.0 L 294.0 437.0 L 294.0 436.0 L 297.0 436.0 L 297.0 435.0 L 299.0 435.0 L 299.0 434.0 L 301.0 434.0 L 301.0 433.0 L 303.0 433.0 L 303.0 432.0 L 305.0 432.0 L 305.0 431.0 L 307.0 431.0 L 307.0 430.0 L 309.0 430.0 L 309.0 429.0 L 311.0 429.0 L 311.0 428.0 L 313.0 428.0 L 313.0 427.0 L 315.0 427.0 L 315.0 426.0 L 317.0 426.0 L 317.0 425.0 L 319.0 425.0 L 319.0 424.0 L 321.0 424.0 L 321.0 423.0 L 325.0 422.0 L 326.0 420.0 L 328.0 420.0 L 328.0 419.0 L 330.0 419.0 L 330.0 418.0 L 332.0 418.0 L 332.0 417.0 L 334.0 417.0 L 334.0 416.0 L 338.0 415.0 L 339.0 413.0 L 341.0 413.0 L 341.0 412.0 L 343.0 412.0 L 343.0 411.0 L 347.0 410.0 L 348.0 408.0 L 352.0 407.0 L 353.0 405.0 L 357.0 404.0 L 358.0 402.0 L 360.0 402.0 L 361.0 400.0 L 363.0 400.0 L 364.0 398.0 L 366.0 398.0 L 367.0 396.0 L 369.0 396.0 L 369.0 395.0 L 370.0 395.0 L 371.0 393.0 L 373.0 393.0 L 373.0 392.0 L 374.0 392.0 L 374.0 391.0 L 375.0 391.0 L 377.0 388.0 L 379.0 388.0 L 379.0 387.0 L 380.0 387.0 L 380.0 386.0 L 383.0 384.0 L 383.0 382.0 L 386.0 380.0 L 386.0 375.0 L 385.0 375.0 L 385.0 374.0 L 384.0 374.0 L 384.0 373.0 L 383.0 373.0 L 383.0 372.0 L 382.0 372.0 L 382.0 371.0 L 381.0 371.0 L 379.0 368.0 L 377.0 368.0 L 376.0 366.0 L 372.0 365.0 L 371.0 363.0 L 369.0 363.0 L 369.0 362.0 L 367.0 362.0 L 367.0 361.0 L 365.0 361.0 L 365.0 360.0 L 363.0 360.0 L 363.0 359.0 L 361.0 359.0 L 361.0 358.0 L 359.0 358.0 L 359.0 357.0 L 356.0 357.0 L 356.0 356.0 L 354.0 356.0 L 354.0 355.0 L 352.0 355.0 L 352.0 354.0 L 349.0 354.0 L 349.0 353.0 L 347.0 353.0 L 347.0 352.0 L 341.0 351.0 L 341.0 350.0 L 339.0 350.0 L 339.0 349.0 L 336.0 349.0 L 336.0 348.0 L 333.0 348.0 L 333.0 347.0 L 330.0 347.0 L 330.0 346.0 L 327.0 346.0 L 327.0 345.0 L 324.0 345.0 L 324.0 344.0 L 321.0 344.0 L 321.0 343.0 L 318.0 343.0 L 318.0 342.0 L 315.0 342.0 L 315.0 341.0 L 312.0 341.0 L 312.0 340.0 L 309.0 340.0 L 309.0 339.0 L 306.0 339.0 L 306.0 338.0 L 302.0 338.0 L 302.0 337.0 L 299.0 337.0 L 299.0 336.0 L 296.0 336.0 L 296.0 335.0 L 292.0 335.0 L 292.0 334.0 L 289.0 334.0 L 289.0 333.0 L 286.0 333.0 L 286.0 332.0 L 282.0 332.0 L 282.0 331.0 L 275.0 330.0 L 275.0 329.0 L 272.0 329.0 L 272.0 328.0 L 269.0 328.0 L 269.0 327.0 L 265.0 327.0 L 265.0 326.0 L 258.0 325.0 L 258.0 324.0 L 255.0 324.0 L 255.0 323.0 L 251.0 323.0 L 251.0 322.0 L 248.0 322.0 L 248.0 321.0 L 245.0 321.0 L 245.0 320.0 L 241.0 320.0 L 241.0 319.0 L 238.0 319.0 L 238.0 318.0 L 235.0 318.0 L 235.0 317.0 L 231.0 317.0 L 231.0 316.0 L 228.0 316.0 L 228.0 315.0 L 225.0 315.0 L 225.0 314.0 L 222.0 314.0 L 222.0 313.0 L 219.0 313.0 L 219.0 312.0 L 216.0 312.0 L 216.0 311.0 L 213.0 311.0 L 213.0 310.0 L 210.0 310.0 L 210.0 309.0 L 207.0 309.0 L 207.0 308.0 L 201.0 307.0 L 201.0 306.0 L 196.0 305.0 L 196.0 304.0 L 194.0 304.0 L 194.0 303.0 L 191.0 303.0 L 191.0 302.0 L 189.0 302.0 L 189.0 301.0 L 186.0 301.0 L 186.0 300.0 L 184.0 300.0 L 184.0 299.0 L 182.0 299.0 L 182.0 298.0 L 180.0 298.0 L 180.0 297.0 L 176.0 296.0 L 176.0 295.0 L 175.0 295.0 L 175.0 294.0 L 173.0 294.0 L 172.0 292.0 L 170.0 292.0 L 170.0 291.0 L 169.0 291.0 L 169.0 290.0 L 168.0 290.0 L 168.0 289.0 L 167.0 289.0 L 167.0 288.0 L 166.0 288.0 L 166.0 287.0 L 163.0 285.0 L 163.0 283.0 L 162.0 283.0 L 162.0 281.0 L 161.0 281.0 L 161.0 278.0 L 160.0 278.0 L 160.0 271.0 L 161.0 271.0 L 161.0 268.0 L 162.0 268.0 L 163.0 264.0 L 164.0 264.0 L 164.0 263.0 L 165.0 263.0 L 165.0 262.0 L 166.0 262.0 L 169.0 258.0 L 171.0 258.0 L 173.0 255.0 L 177.0 254.0 L 178.0 252.0 L 180.0 252.0 L 181.0 250.0 L 185.0 249.0 L 186.0 247.0 L 188.0 247.0 L 188.0 246.0 L 192.0 245.0 L 193.0 243.0 L 195.0 243.0 L 195.0 242.0 L 197.0 242.0 L 197.0 241.0 L 201.0 240.0 L 202.0 238.0 L 204.0 238.0 L 204.0 237.0 L 206.0 237.0 L 206.0 236.0 L 208.0 236.0 L 208.0 235.0 L 210.0 235.0 L 210.0 234.0 L 212.0 234.0 L 212.0 233.0 L 216.0 232.0 L 217.0 230.0 L 219.0 230.0 L 219.0 229.0 L 221.0 229.0 L 221.0 228.0 L 223.0 228.0 L 223.0 227.0 L 225.0 227.0 L 225.0 226.0 L 227.0 226.0 L 227.0 225.0 L 231.0 224.0 L 232.0 222.0 L 234.0 222.0 L 234.0 221.0 L 236.0 221.0 L 236.0 220.0 L 238.0 220.0 L 238.0 219.0 L 240.0 219.0 L 240.0 218.0 L 244.0 217.0 L 245.0 215.0 L 247.0 215.0 L 247.0 214.0 L 249.0 214.0 L 249.0 213.0 L 253.0 212.0 L 254.0 210.0 L 256.0 210.0 L 256.0 209.0 L 260.0 208.0 L 261.0 206.0 L 263.0 206.0 L 263.0 205.0 L 265.0 205.0 L 265.0 204.0 L 267.0 204.0 L 268.0 202.0 L 272.0 201.0 L 273.0 199.0 L 277.0 198.0 L 278.0 196.0 L 280.0 196.0 L 281.0 194.0 L 283.0 194.0 L 284.0 192.0 L 288.0 191.0 L 289.0 189.0 L 291.0 189.0 L 292.0 187.0 L 294.0 187.0 L 296.0 184.0 L 298.0 184.0 L 299.0 182.0 L 301.0 182.0 L 303.0 179.0 L 305.0 179.0 L 307.0 176.0 L 309.0 176.0 L 311.0 173.0 L 313.0 173.0 L 313.0 172.0 L 314.0 172.0 L 316.0 169.0 L 318.0 169.0 L 318.0 168.0 L 319.0 168.0 L 319.0 167.0 L 320.0 167.0 L 320.0 166.0 L 321.0 166.0 L 321.0 165.0 L 322.0 165.0 L 322.0 164.0 L 323.0 164.0 L 325.0 161.0 L 327.0 161.0 L 327.0 160.0 L 328.0 160.0 L 328.0 159.0 L 329.0 159.0 L 329.0 158.0 L 330.0 158.0 L 330.0 157.0 L 331.0 157.0 L 331.0 156.0 L 332.0 156.0 L 332.0 155.0 L 333.0 155.0 L 333.0 154.0 L 334.0 154.0 L 334.0 153.0 L 338.0 150.0 L 338.0 148.0 L 339.0 148.0 L 339.0 147.0 L 340.0 147.0 L 340.0 146.0 L 344.0 143.0 L 344.0 141.0 L 347.0 139.0 L 347.0 137.0 L 350.0 135.0 L 350.0 133.0 L 352.0 132.0 L 353.0 128.0 L 355.0 127.0 L 355.0 125.0 L 356.0 125.0 L 356.0 123.0 L 357.0 123.0 L 357.0 121.0 L 358.0 121.0 L 358.0 119.0 L 359.0 119.0 L 359.0 117.0 L 360.0 117.0 L 360.0 115.0 L 361.0 115.0 L 361.0 112.0 L 362.0 112.0 L 363.0 106.0 L 364.0 106.0 L 365.0 97.0 L 366.0 97.0 L 366.0 84.0 L 367.0 84.0 L 367.0 80.0 L 368.0 80.0 L 368.0 78.0 L 369.0 78.0 L 370.0 76.0 L 372.0 76.0 L 372.0 75.0 L 374.0 75.0 L 374.0 74.0 Z"></path></g>
  </g>
  <g transform="translate(38.0 860.0) scale(0.6448)">
    <g transform="translate(-60 -56)"><path d="M64.0 60.0L292.0 60.0L292.0 77.0L187.0 77.0L187.0 348.0L169.0 348.0L169.0 77.0L64.0 77.0L64.0 60.0ZM869.0 60.0L885.0 60.0L885.0 166.0L887.0 165.0L888.0 161.0L889.0 161.0L889.0 160.0L890.0 160.0L890.0 159.0L892.0 158.0L892.0 156.0L893.0 156.0L893.0 155.0L894.0 155.0L894.0 154.0L895.0 154.0L895.0 153.0L896.0 153.0L896.0 152.0L897.0 152.0L897.0 151.0L898.0 151.0L898.0 150.0L899.0 150.0L899.0 149.0L900.0 149.0L900.0 148.0L901.0 148.0L901.0 147.0L902.0 147.0L902.0 146.0L903.0 146.0L904.0 144.0L906.0 144.0L906.0 143.0L907.0 143.0L907.0 142.0L909.0 142.0L910.0 140.0L914.0 139.0L915.0 137.0L918.0 137.0L918.0 136.0L920.0 136.0L920.0 135.0L922.0 135.0L922.0 134.0L924.0 134.0L924.0 133.0L927.0 133.0L927.0 132.0L931.0 132.0L931.0 131.0L934.0 131.0L934.0 130.0L938.0 130.0L938.0 129.0L943.0 129.0L943.0 128.0L952.0 128.0L952.0 127.0L969.0 127.0L969.0 128.0L977.0 128.0L977.0 129.0L982.0 129.0L982.0 130.0L986.0 130.0L986.0 131.0L992.0 132.0L992.0 133.0L994.0 133.0L994.0 134.0L997.0 134.0L997.0 135.0L999.0 135.0L999.0 136.0L1001.0 136.0L1001.0 137.0L1005.0 138.0L1005.0 139.0L1006.0 139.0L1006.0 140.0L1008.0 140.0L1009.0 142.0L1011.0 142.0L1011.0 143.0L1012.0 143.0L1012.0 144.0L1013.0 144.0L1014.0 146.0L1016.0 146.0L1016.0 147.0L1017.0 147.0L1017.0 148.0L1018.0 148.0L1018.0 149.0L1019.0 149.0L1019.0 150.0L1020.0 150.0L1020.0 151.0L1021.0 151.0L1021.0 152.0L1022.0 152.0L1022.0 153.0L1024.0 154.0L1024.0 156.0L1025.0 156.0L1025.0 157.0L1027.0 158.0L1027.0 160.0L1028.0 160.0L1028.0 161.0L1029.0 161.0L1029.0 163.0L1031.0 164.0L1032.0 168.0L1034.0 169.0L1034.0 171.0L1035.0 171.0L1035.0 173.0L1036.0 173.0L1036.0 176.0L1037.0 176.0L1037.0 178.0L1038.0 178.0L1038.0 180.0L1039.0 180.0L1039.0 183.0L1040.0 183.0L1040.0 186.0L1041.0 186.0L1041.0 189.0L1042.0 189.0L1042.0 193.0L1043.0 193.0L1043.0 197.0L1044.0 197.0L1044.0 202.0L1045.0 202.0L1045.0 209.0L1046.0 209.0L1046.0 219.0L1047.0 219.0L1047.0 348.0L1030.0 348.0L1030.0 221.0L1029.0 221.0L1029.0 210.0L1028.0 210.0L1028.0 204.0L1027.0 204.0L1027.0 199.0L1026.0 199.0L1026.0 195.0L1025.0 195.0L1025.0 191.0L1024.0 191.0L1023.0 185.0L1022.0 185.0L1022.0 183.0L1021.0 183.0L1021.0 180.0L1020.0 180.0L1019.0 176.0L1017.0 175.0L1016.0 171.0L1015.0 171.0L1015.0 170.0L1013.0 169.0L1013.0 167.0L1012.0 167.0L1012.0 166.0L1011.0 166.0L1011.0 165.0L1010.0 165.0L1010.0 164.0L1009.0 164.0L1009.0 163.0L1008.0 163.0L1008.0 162.0L1007.0 162.0L1007.0 161.0L1006.0 161.0L1006.0 160.0L1005.0 160.0L1005.0 159.0L1004.0 159.0L1004.0 158.0L1003.0 158.0L1002.0 156.0L1000.0 156.0L999.0 154.0L997.0 154.0L996.0 152.0L994.0 152.0L994.0 151.0L992.0 151.0L992.0 150.0L990.0 150.0L990.0 149.0L987.0 149.0L987.0 148.0L984.0 148.0L984.0 147.0L981.0 147.0L981.0 146.0L977.0 146.0L977.0 145.0L970.0 145.0L970.0 144.0L947.0 144.0L947.0 145.0L940.0 145.0L940.0 146.0L937.0 146.0L937.0 147.0L933.0 147.0L933.0 148.0L930.0 148.0L930.0 149.0L928.0 149.0L928.0 150.0L926.0 150.0L926.0 151.0L924.0 151.0L924.0 152.0L920.0 153.0L919.0 155.0L917.0 155.0L917.0 156.0L916.0 156.0L915.0 158.0L913.0 158.0L913.0 159.0L912.0 159.0L912.0 160.0L911.0 160.0L911.0 161.0L910.0 161.0L910.0 162.0L909.0 162.0L909.0 163.0L908.0 163.0L908.0 164.0L906.0 165.0L906.0 167.0L905.0 167.0L905.0 168.0L903.0 169.0L903.0 171.0L901.0 172.0L901.0 174.0L899.0 175.0L899.0 177.0L898.0 177.0L898.0 179.0L897.0 179.0L897.0 181.0L896.0 181.0L896.0 183.0L895.0 183.0L895.0 186.0L894.0 186.0L894.0 188.0L893.0 188.0L893.0 191.0L892.0 191.0L892.0 194.0L891.0 194.0L891.0 197.0L890.0 197.0L890.0 202.0L889.0 202.0L889.0 207.0L888.0 207.0L888.0 214.0L887.0 214.0L887.0 348.0L869.0 348.0L869.0 60.0ZM1087.0 60.0L1197.0 60.0L1197.0 61.0L1207.0 61.0L1207.0 62.0L1213.0 62.0L1213.0 63.0L1219.0 63.0L1219.0 64.0L1223.0 64.0L1223.0 65.0L1226.0 65.0L1226.0 66.0L1229.0 66.0L1229.0 67.0L1235.0 68.0L1235.0 69.0L1237.0 69.0L1237.0 70.0L1239.0 70.0L1239.0 71.0L1241.0 71.0L1241.0 72.0L1243.0 72.0L1243.0 73.0L1245.0 73.0L1245.0 74.0L1249.0 75.0L1249.0 76.0L1250.0 76.0L1250.0 77.0L1252.0 77.0L1252.0 78.0L1253.0 78.0L1254.0 80.0L1256.0 80.0L1256.0 81.0L1257.0 81.0L1257.0 82.0L1258.0 82.0L1258.0 83.0L1259.0 83.0L1260.0 85.0L1262.0 85.0L1262.0 86.0L1264.0 87.0L1264.0 89.0L1265.0 89.0L1265.0 90.0L1266.0 90.0L1266.0 91.0L1267.0 91.0L1267.0 92.0L1268.0 92.0L1268.0 93.0L1269.0 93.0L1269.0 94.0L1270.0 94.0L1270.0 95.0L1271.0 95.0L1271.0 96.0L1273.0 97.0L1273.0 99.0L1275.0 100.0L1275.0 102.0L1276.0 102.0L1276.0 103.0L1278.0 104.0L1278.0 106.0L1280.0 107.0L1281.0 111.0L1283.0 112.0L1283.0 114.0L1284.0 114.0L1284.0 116.0L1285.0 116.0L1285.0 118.0L1286.0 118.0L1286.0 120.0L1287.0 120.0L1287.0 122.0L1288.0 122.0L1288.0 124.0L1289.0 124.0L1289.0 127.0L1290.0 127.0L1290.0 129.0L1291.0 129.0L1291.0 132.0L1292.0 132.0L1292.0 134.0L1293.0 134.0L1294.0 140.0L1295.0 140.0L1296.0 148.0L1297.0 148.0L1297.0 151.0L1298.0 151.0L1298.0 155.0L1299.0 155.0L1299.0 161.0L1300.0 161.0L1300.0 166.0L1301.0 166.0L1301.0 172.0L1302.0 172.0L1302.0 181.0L1303.0 181.0L1303.0 198.0L1304.0 198.0L1304.0 211.0L1303.0 211.0L1303.0 228.0L1302.0 228.0L1302.0 237.0L1301.0 237.0L1301.0 243.0L1300.0 243.0L1300.0 248.0L1299.0 248.0L1299.0 254.0L1298.0 254.0L1298.0 258.0L1297.0 258.0L1297.0 261.0L1296.0 261.0L1296.0 265.0L1295.0 265.0L1295.0 268.0L1294.0 268.0L1294.0 272.0L1293.0 272.0L1293.0 274.0L1292.0 274.0L1292.0 277.0L1291.0 277.0L1291.0 280.0L1290.0 280.0L1290.0 282.0L1289.0 282.0L1289.0 285.0L1288.0 285.0L1288.0 287.0L1287.0 287.0L1286.0 291.0L1284.0 292.0L1284.0 294.0L1283.0 294.0L1283.0 296.0L1282.0 296.0L1281.0 300.0L1280.0 300.0L1280.0 301.0L1279.0 301.0L1279.0 303.0L1278.0 303.0L1278.0 304.0L1276.0 305.0L1276.0 307.0L1274.0 308.0L1274.0 310.0L1273.0 310.0L1273.0 311.0L1272.0 311.0L1272.0 312.0L1271.0 312.0L1271.0 313.0L1270.0 313.0L1270.0 314.0L1269.0 314.0L1269.0 315.0L1268.0 315.0L1268.0 316.0L1266.0 317.0L1266.0 319.0L1265.0 319.0L1265.0 320.0L1264.0 320.0L1264.0 321.0L1263.0 321.0L1262.0 323.0L1260.0 323.0L1260.0 324.0L1259.0 324.0L1259.0 325.0L1258.0 325.0L1258.0 326.0L1257.0 326.0L1256.0 328.0L1254.0 328.0L1254.0 329.0L1253.0 329.0L1252.0 331.0L1248.0 332.0L1247.0 334.0L1245.0 334.0L1245.0 335.0L1243.0 335.0L1243.0 336.0L1241.0 336.0L1241.0 337.0L1239.0 337.0L1239.0 338.0L1237.0 338.0L1237.0 339.0L1234.0 339.0L1234.0 340.0L1232.0 340.0L1232.0 341.0L1226.0 342.0L1226.0 343.0L1222.0 343.0L1222.0 344.0L1218.0 344.0L1218.0 345.0L1213.0 345.0L1213.0 346.0L1206.0 346.0L1206.0 347.0L1194.0 347.0L1194.0 348.0L1087.0 348.0L1087.0 60.0ZM1750.0 60.0L1767.0 60.0L1767.0 86.0L1751.0 86.0L1751.0 85.0L1750.0 85.0L1750.0 60.0ZM1106.0 77.0L1105.0 77.0L1105.0 331.0L1190.0 331.0L1190.0 330.0L1201.0 330.0L1201.0 329.0L1208.0 329.0L1208.0 328.0L1213.0 328.0L1213.0 327.0L1221.0 326.0L1221.0 325.0L1224.0 325.0L1224.0 324.0L1226.0 324.0L1226.0 323.0L1229.0 323.0L1229.0 322.0L1231.0 322.0L1231.0 321.0L1233.0 321.0L1233.0 320.0L1235.0 320.0L1235.0 319.0L1239.0 318.0L1239.0 317.0L1240.0 317.0L1240.0 316.0L1242.0 316.0L1242.0 315.0L1243.0 315.0L1244.0 313.0L1246.0 313.0L1246.0 312.0L1247.0 312.0L1247.0 311.0L1248.0 311.0L1248.0 310.0L1249.0 310.0L1250.0 308.0L1252.0 308.0L1252.0 307.0L1253.0 307.0L1253.0 305.0L1254.0 305.0L1254.0 304.0L1255.0 304.0L1255.0 303.0L1256.0 303.0L1256.0 302.0L1257.0 302.0L1257.0 301.0L1258.0 301.0L1258.0 300.0L1260.0 299.0L1260.0 297.0L1262.0 296.0L1262.0 294.0L1264.0 293.0L1264.0 291.0L1265.0 291.0L1265.0 290.0L1266.0 290.0L1266.0 288.0L1268.0 287.0L1268.0 285.0L1269.0 285.0L1269.0 283.0L1270.0 283.0L1270.0 281.0L1271.0 281.0L1271.0 279.0L1272.0 279.0L1272.0 277.0L1273.0 277.0L1273.0 274.0L1274.0 274.0L1274.0 272.0L1275.0 272.0L1275.0 269.0L1276.0 269.0L1277.0 263.0L1278.0 263.0L1278.0 259.0L1279.0 259.0L1279.0 255.0L1280.0 255.0L1280.0 251.0L1281.0 251.0L1281.0 247.0L1282.0 247.0L1283.0 235.0L1284.0 235.0L1284.0 225.0L1285.0 225.0L1285.0 183.0L1284.0 183.0L1284.0 172.0L1283.0 172.0L1283.0 167.0L1282.0 167.0L1282.0 161.0L1281.0 161.0L1281.0 156.0L1280.0 156.0L1280.0 152.0L1279.0 152.0L1278.0 144.0L1277.0 144.0L1277.0 141.0L1276.0 141.0L1276.0 139.0L1275.0 139.0L1274.0 133.0L1273.0 133.0L1273.0 131.0L1272.0 131.0L1272.0 129.0L1271.0 129.0L1271.0 127.0L1270.0 127.0L1270.0 125.0L1269.0 125.0L1269.0 123.0L1268.0 123.0L1267.0 119.0L1265.0 118.0L1265.0 116.0L1263.0 115.0L1263.0 113.0L1261.0 112.0L1261.0 110.0L1260.0 110.0L1260.0 109.0L1259.0 109.0L1259.0 108.0L1258.0 108.0L1258.0 107.0L1257.0 107.0L1257.0 106.0L1256.0 106.0L1256.0 105.0L1254.0 104.0L1254.0 102.0L1253.0 102.0L1252.0 100.0L1250.0 100.0L1250.0 99.0L1249.0 99.0L1249.0 98.0L1248.0 98.0L1248.0 97.0L1247.0 97.0L1246.0 95.0L1244.0 95.0L1244.0 94.0L1243.0 94.0L1243.0 93.0L1241.0 93.0L1240.0 91.0L1236.0 90.0L1235.0 88.0L1233.0 88.0L1233.0 87.0L1230.0 87.0L1230.0 86.0L1228.0 86.0L1228.0 85.0L1226.0 85.0L1226.0 84.0L1223.0 84.0L1223.0 83.0L1220.0 83.0L1220.0 82.0L1216.0 82.0L1216.0 81.0L1212.0 81.0L1212.0 80.0L1207.0 80.0L1207.0 79.0L1201.0 79.0L1201.0 78.0L1189.0 78.0L1189.0 77.0L1106.0 77.0ZM736.0 126.0L758.0 126.0L758.0 127.0L765.0 127.0L765.0 128.0L770.0 128.0L770.0 129.0L773.0 129.0L773.0 130.0L776.0 130.0L776.0 131.0L782.0 132.0L782.0 133.0L784.0 133.0L784.0 134.0L786.0 134.0L786.0 135.0L790.0 136.0L791.0 138.0L793.0 138.0L794.0 140.0L796.0 140.0L796.0 141.0L797.0 141.0L797.0 142.0L798.0 142.0L798.0 143.0L799.0 143.0L800.0 145.0L802.0 145.0L802.0 146.0L803.0 146.0L803.0 147.0L804.0 147.0L804.0 148.0L805.0 148.0L805.0 149.0L806.0 149.0L806.0 150.0L807.0 150.0L807.0 151.0L809.0 152.0L809.0 154.0L810.0 154.0L810.0 155.0L811.0 155.0L811.0 156.0L812.0 156.0L812.0 157.0L813.0 157.0L813.0 158.0L815.0 159.0L816.0 163.0L818.0 164.0L818.0 166.0L819.0 166.0L819.0 167.0L820.0 167.0L820.0 169.0L822.0 170.0L822.0 173.0L823.0 173.0L823.0 175.0L824.0 175.0L824.0 177.0L825.0 177.0L825.0 179.0L826.0 179.0L826.0 181.0L827.0 181.0L827.0 183.0L828.0 183.0L828.0 186.0L829.0 186.0L829.0 189.0L830.0 189.0L830.0 192.0L831.0 192.0L831.0 195.0L832.0 195.0L832.0 199.0L833.0 199.0L833.0 203.0L834.0 203.0L834.0 207.0L835.0 207.0L835.0 213.0L836.0 213.0L836.0 220.0L837.0 220.0L837.0 235.0L838.0 235.0L838.0 245.0L837.0 245.0L837.0 260.0L836.0 260.0L836.0 267.0L835.0 267.0L835.0 273.0L834.0 273.0L834.0 277.0L833.0 277.0L832.0 285.0L831.0 285.0L831.0 288.0L830.0 288.0L830.0 291.0L829.0 291.0L828.0 297.0L827.0 297.0L827.0 299.0L826.0 299.0L826.0 301.0L825.0 301.0L825.0 303.0L824.0 303.0L824.0 305.0L823.0 305.0L823.0 307.0L822.0 307.0L822.0 309.0L821.0 309.0L820.0 313.0L818.0 314.0L818.0 316.0L816.0 317.0L816.0 319.0L815.0 319.0L815.0 320.0L814.0 320.0L814.0 321.0L812.0 322.0L812.0 324.0L811.0 324.0L811.0 325.0L810.0 325.0L810.0 326.0L809.0 326.0L809.0 327.0L808.0 327.0L808.0 328.0L807.0 328.0L807.0 329.0L806.0 329.0L806.0 330.0L805.0 330.0L805.0 331.0L804.0 331.0L804.0 332.0L803.0 332.0L803.0 333.0L802.0 333.0L801.0 335.0L799.0 335.0L799.0 336.0L798.0 336.0L798.0 337.0L797.0 337.0L796.0 339.0L794.0 339.0L794.0 340.0L793.0 340.0L793.0 341.0L791.0 341.0L790.0 343.0L788.0 343.0L788.0 344.0L786.0 344.0L786.0 345.0L784.0 345.0L784.0 346.0L782.0 346.0L782.0 347.0L780.0 347.0L780.0 348.0L777.0 348.0L777.0 349.0L774.0 349.0L774.0 350.0L771.0 350.0L771.0 351.0L767.0 351.0L767.0 352.0L762.0 352.0L762.0 353.0L755.0 353.0L755.0 354.0L733.0 354.0L733.0 353.0L726.0 353.0L726.0 352.0L721.0 352.0L721.0 351.0L717.0 351.0L717.0 350.0L714.0 350.0L714.0 349.0L712.0 349.0L712.0 348.0L709.0 348.0L709.0 347.0L707.0 347.0L707.0 346.0L703.0 345.0L702.0 343.0L700.0 343.0L700.0 342.0L698.0 342.0L698.0 341.0L697.0 341.0L696.0 339.0L694.0 339.0L694.0 338.0L693.0 338.0L693.0 337.0L692.0 337.0L692.0 336.0L691.0 336.0L691.0 335.0L690.0 335.0L690.0 334.0L689.0 334.0L688.0 332.0L686.0 332.0L686.0 331.0L685.0 331.0L685.0 329.0L684.0 329.0L684.0 328.0L683.0 328.0L683.0 327.0L682.0 327.0L682.0 326.0L681.0 326.0L681.0 325.0L679.0 324.0L679.0 322.0L678.0 322.0L678.0 321.0L676.0 320.0L676.0 318.0L674.0 317.0L674.0 315.0L672.0 314.0L672.0 312.0L671.0 312.0L671.0 310.0L670.0 310.0L670.0 308.0L669.0 308.0L669.0 306.0L668.0 306.0L668.0 444.0L651.0 444.0L651.0 132.0L667.0 132.0L667.0 175.0L668.0 175.0L668.0 172.0L669.0 172.0L669.0 170.0L671.0 169.0L671.0 167.0L673.0 166.0L673.0 164.0L675.0 163.0L675.0 161.0L677.0 160.0L677.0 158.0L678.0 158.0L678.0 157.0L679.0 157.0L679.0 156.0L680.0 156.0L680.0 155.0L681.0 155.0L681.0 154.0L683.0 153.0L683.0 151.0L684.0 151.0L684.0 150.0L685.0 150.0L685.0 149.0L686.0 149.0L687.0 147.0L689.0 147.0L689.0 146.0L690.0 146.0L690.0 145.0L691.0 145.0L691.0 144.0L692.0 144.0L693.0 142.0L695.0 142.0L695.0 141.0L696.0 141.0L696.0 140.0L698.0 140.0L699.0 138.0L701.0 138.0L701.0 137.0L703.0 137.0L704.0 135.0L706.0 135.0L706.0 134.0L709.0 134.0L709.0 133.0L711.0 133.0L711.0 132.0L713.0 132.0L713.0 131.0L716.0 131.0L716.0 130.0L720.0 130.0L720.0 129.0L724.0 129.0L724.0 128.0L728.0 128.0L728.0 127.0L736.0 127.0L736.0 126.0ZM1411.0 126.0L1435.0 126.0L1435.0 127.0L1443.0 127.0L1443.0 128.0L1448.0 128.0L1448.0 129.0L1452.0 129.0L1452.0 130.0L1455.0 130.0L1455.0 131.0L1458.0 131.0L1458.0 132.0L1464.0 133.0L1464.0 134.0L1466.0 134.0L1466.0 135.0L1468.0 135.0L1468.0 136.0L1472.0 137.0L1473.0 139.0L1475.0 139.0L1475.0 140.0L1477.0 140.0L1477.0 141.0L1478.0 141.0L1479.0 143.0L1481.0 143.0L1481.0 144.0L1482.0 144.0L1483.0 146.0L1485.0 146.0L1485.0 147.0L1486.0 147.0L1486.0 148.0L1487.0 148.0L1487.0 149.0L1488.0 149.0L1488.0 150.0L1489.0 150.0L1489.0 151.0L1490.0 151.0L1490.0 152.0L1491.0 152.0L1491.0 153.0L1492.0 153.0L1492.0 154.0L1494.0 155.0L1494.0 157.0L1495.0 157.0L1495.0 158.0L1496.0 158.0L1496.0 159.0L1498.0 160.0L1498.0 162.0L1499.0 162.0L1499.0 163.0L1500.0 163.0L1500.0 165.0L1502.0 166.0L1503.0 170.0L1505.0 171.0L1505.0 173.0L1506.0 173.0L1506.0 175.0L1507.0 175.0L1507.0 177.0L1508.0 177.0L1508.0 179.0L1509.0 179.0L1509.0 182.0L1510.0 182.0L1510.0 184.0L1511.0 184.0L1511.0 187.0L1512.0 187.0L1512.0 189.0L1513.0 189.0L1513.0 192.0L1514.0 192.0L1514.0 196.0L1515.0 196.0L1515.0 199.0L1516.0 199.0L1516.0 203.0L1517.0 203.0L1517.0 208.0L1518.0 208.0L1518.0 214.0L1519.0 214.0L1519.0 221.0L1520.0 221.0L1520.0 232.0L1521.0 232.0L1521.0 245.0L1342.0 245.0L1342.0 256.0L1343.0 256.0L1343.0 265.0L1344.0 265.0L1344.0 271.0L1345.0 271.0L1345.0 275.0L1346.0 275.0L1346.0 279.0L1347.0 279.0L1347.0 283.0L1348.0 283.0L1349.0 289.0L1350.0 289.0L1350.0 291.0L1351.0 291.0L1351.0 293.0L1352.0 293.0L1352.0 295.0L1353.0 295.0L1353.0 297.0L1354.0 297.0L1354.0 299.0L1355.0 299.0L1356.0 303.0L1357.0 303.0L1357.0 304.0L1358.0 304.0L1358.0 306.0L1359.0 306.0L1359.0 307.0L1361.0 308.0L1361.0 310.0L1362.0 310.0L1362.0 311.0L1363.0 311.0L1363.0 312.0L1364.0 312.0L1364.0 313.0L1365.0 313.0L1365.0 314.0L1367.0 315.0L1367.0 317.0L1368.0 317.0L1368.0 318.0L1370.0 318.0L1370.0 319.0L1371.0 319.0L1371.0 320.0L1372.0 320.0L1372.0 321.0L1373.0 321.0L1374.0 323.0L1376.0 323.0L1376.0 324.0L1377.0 324.0L1377.0 325.0L1379.0 325.0L1380.0 327.0L1382.0 327.0L1382.0 328.0L1384.0 328.0L1384.0 329.0L1386.0 329.0L1386.0 330.0L1388.0 330.0L1388.0 331.0L1394.0 332.0L1394.0 333.0L1396.0 333.0L1396.0 334.0L1401.0 334.0L1401.0 335.0L1405.0 335.0L1405.0 336.0L1412.0 336.0L1412.0 337.0L1432.0 337.0L1432.0 336.0L1440.0 336.0L1440.0 335.0L1445.0 335.0L1445.0 334.0L1449.0 334.0L1449.0 333.0L1452.0 333.0L1452.0 332.0L1458.0 331.0L1458.0 330.0L1460.0 330.0L1460.0 329.0L1462.0 329.0L1462.0 328.0L1464.0 328.0L1464.0 327.0L1468.0 326.0L1468.0 325.0L1469.0 325.0L1469.0 324.0L1471.0 324.0L1471.0 323.0L1472.0 323.0L1473.0 321.0L1475.0 321.0L1476.0 319.0L1478.0 319.0L1478.0 318.0L1479.0 318.0L1479.0 317.0L1480.0 317.0L1480.0 316.0L1481.0 316.0L1481.0 315.0L1482.0 315.0L1482.0 314.0L1483.0 314.0L1483.0 313.0L1484.0 313.0L1484.0 312.0L1485.0 312.0L1485.0 311.0L1486.0 311.0L1486.0 310.0L1487.0 310.0L1487.0 309.0L1489.0 308.0L1489.0 306.0L1490.0 306.0L1490.0 305.0L1492.0 304.0L1492.0 302.0L1493.0 302.0L1493.0 301.0L1495.0 300.0L1495.0 298.0L1497.0 297.0L1497.0 295.0L1498.0 295.0L1498.0 293.0L1499.0 293.0L1499.0 291.0L1500.0 291.0L1501.0 289.0L1504.0 289.0L1504.0 290.0L1508.0 291.0L1509.0 293.0L1511.0 293.0L1511.0 294.0L1515.0 295.0L1515.0 299.0L1514.0 299.0L1514.0 301.0L1513.0 301.0L1512.0 305.0L1510.0 306.0L1510.0 308.0L1509.0 308.0L1509.0 310.0L1508.0 310.0L1508.0 311.0L1506.0 312.0L1506.0 314.0L1505.0 314.0L1505.0 315.0L1503.0 316.0L1503.0 318.0L1502.0 318.0L1502.0 319.0L1501.0 319.0L1501.0 320.0L1500.0 320.0L1500.0 321.0L1499.0 321.0L1499.0 322.0L1498.0 322.0L1498.0 323.0L1496.0 324.0L1496.0 326.0L1494.0 326.0L1494.0 327.0L1493.0 327.0L1493.0 328.0L1492.0 328.0L1492.0 329.0L1491.0 329.0L1491.0 330.0L1490.0 330.0L1490.0 331.0L1489.0 331.0L1488.0 333.0L1486.0 333.0L1486.0 334.0L1485.0 334.0L1484.0 336.0L1482.0 336.0L1481.0 338.0L1477.0 339.0L1476.0 341.0L1474.0 341.0L1474.0 342.0L1472.0 342.0L1472.0 343.0L1470.0 343.0L1470.0 344.0L1468.0 344.0L1468.0 345.0L1466.0 345.0L1466.0 346.0L1463.0 346.0L1463.0 347.0L1461.0 347.0L1461.0 348.0L1458.0 348.0L1458.0 349.0L1455.0 349.0L1455.0 350.0L1451.0 350.0L1451.0 351.0L1447.0 351.0L1447.0 352.0L1442.0 352.0L1442.0 353.0L1434.0 353.0L1434.0 354.0L1410.0 354.0L1410.0 353.0L1402.0 353.0L1402.0 352.0L1397.0 352.0L1397.0 351.0L1393.0 351.0L1393.0 350.0L1390.0 350.0L1390.0 349.0L1386.0 349.0L1386.0 348.0L1384.0 348.0L1384.0 347.0L1381.0 347.0L1381.0 346.0L1379.0 346.0L1379.0 345.0L1377.0 345.0L1377.0 344.0L1375.0 344.0L1375.0 343.0L1371.0 342.0L1371.0 341.0L1370.0 341.0L1370.0 340.0L1368.0 340.0L1368.0 339.0L1367.0 339.0L1366.0 337.0L1364.0 337.0L1364.0 336.0L1363.0 336.0L1362.0 334.0L1360.0 334.0L1360.0 333.0L1359.0 333.0L1359.0 332.0L1358.0 332.0L1358.0 331.0L1357.0 331.0L1357.0 330.0L1356.0 330.0L1356.0 329.0L1355.0 329.0L1355.0 328.0L1354.0 328.0L1354.0 327.0L1353.0 327.0L1353.0 326.0L1352.0 326.0L1352.0 325.0L1351.0 325.0L1351.0 324.0L1349.0 323.0L1349.0 321.0L1348.0 321.0L1348.0 320.0L1346.0 319.0L1346.0 317.0L1345.0 317.0L1345.0 316.0L1343.0 315.0L1343.0 313.0L1341.0 312.0L1341.0 310.0L1340.0 310.0L1340.0 308.0L1339.0 308.0L1338.0 304.0L1337.0 304.0L1337.0 303.0L1336.0 303.0L1336.0 301.0L1335.0 301.0L1334.0 295.0L1333.0 295.0L1333.0 293.0L1332.0 293.0L1332.0 290.0L1331.0 290.0L1331.0 288.0L1330.0 288.0L1330.0 284.0L1329.0 284.0L1328.0 276.0L1327.0 276.0L1327.0 273.0L1326.0 273.0L1326.0 266.0L1325.0 266.0L1325.0 259.0L1324.0 259.0L1324.0 240.0L1323.0 240.0L1323.0 239.0L1324.0 239.0L1324.0 221.0L1325.0 221.0L1325.0 213.0L1326.0 213.0L1326.0 206.0L1327.0 206.0L1327.0 203.0L1328.0 203.0L1328.0 199.0L1329.0 199.0L1329.0 195.0L1330.0 195.0L1330.0 191.0L1331.0 191.0L1331.0 189.0L1332.0 189.0L1333.0 183.0L1334.0 183.0L1334.0 181.0L1335.0 181.0L1335.0 178.0L1337.0 177.0L1337.0 175.0L1338.0 175.0L1338.0 173.0L1339.0 173.0L1339.0 171.0L1340.0 171.0L1341.0 167.0L1342.0 167.0L1342.0 166.0L1344.0 165.0L1344.0 163.0L1345.0 163.0L1345.0 162.0L1347.0 161.0L1347.0 159.0L1348.0 159.0L1348.0 158.0L1349.0 158.0L1349.0 157.0L1350.0 157.0L1350.0 156.0L1351.0 156.0L1351.0 155.0L1352.0 155.0L1352.0 154.0L1353.0 154.0L1353.0 153.0L1354.0 153.0L1354.0 152.0L1355.0 152.0L1355.0 151.0L1356.0 151.0L1356.0 150.0L1357.0 150.0L1357.0 149.0L1358.0 149.0L1358.0 148.0L1359.0 148.0L1359.0 147.0L1360.0 147.0L1361.0 145.0L1363.0 145.0L1363.0 144.0L1364.0 144.0L1365.0 142.0L1367.0 142.0L1367.0 141.0L1368.0 141.0L1368.0 140.0L1370.0 140.0L1371.0 138.0L1373.0 138.0L1373.0 137.0L1375.0 137.0L1375.0 136.0L1377.0 136.0L1377.0 135.0L1379.0 135.0L1379.0 134.0L1382.0 134.0L1382.0 133.0L1384.0 133.0L1384.0 132.0L1387.0 132.0L1387.0 131.0L1393.0 130.0L1393.0 129.0L1403.0 128.0L1403.0 127.0L1411.0 127.0L1411.0 126.0ZM1615.0 126.0L1640.0 126.0L1640.0 127.0L1648.0 127.0L1648.0 128.0L1653.0 128.0L1653.0 129.0L1657.0 129.0L1657.0 130.0L1661.0 130.0L1661.0 131.0L1664.0 131.0L1664.0 132.0L1670.0 133.0L1670.0 134.0L1672.0 134.0L1672.0 135.0L1674.0 135.0L1674.0 136.0L1676.0 136.0L1676.0 137.0L1678.0 137.0L1678.0 138.0L1682.0 139.0L1683.0 141.0L1685.0 141.0L1686.0 143.0L1688.0 143.0L1688.0 144.0L1689.0 144.0L1690.0 146.0L1692.0 146.0L1692.0 147.0L1693.0 147.0L1693.0 148.0L1694.0 148.0L1694.0 149.0L1695.0 149.0L1695.0 150.0L1696.0 150.0L1696.0 151.0L1697.0 151.0L1697.0 152.0L1698.0 152.0L1698.0 153.0L1699.0 153.0L1699.0 154.0L1701.0 155.0L1701.0 157.0L1702.0 157.0L1702.0 158.0L1704.0 159.0L1704.0 161.0L1706.0 162.0L1706.0 164.0L1707.0 164.0L1707.0 166.0L1708.0 166.0L1708.0 168.0L1709.0 168.0L1709.0 170.0L1710.0 170.0L1710.0 172.0L1711.0 172.0L1711.0 175.0L1712.0 175.0L1712.0 178.0L1713.0 178.0L1713.0 183.0L1714.0 183.0L1714.0 189.0L1709.0 189.0L1709.0 190.0L1703.0 190.0L1703.0 191.0L1698.0 191.0L1698.0 192.0L1697.0 192.0L1697.0 189.0L1696.0 189.0L1696.0 185.0L1695.0 185.0L1695.0 181.0L1694.0 181.0L1694.0 179.0L1693.0 179.0L1693.0 177.0L1692.0 177.0L1691.0 173.0L1689.0 172.0L1689.0 170.0L1687.0 169.0L1687.0 167.0L1686.0 167.0L1686.0 166.0L1685.0 166.0L1685.0 165.0L1684.0 165.0L1684.0 164.0L1683.0 164.0L1683.0 163.0L1682.0 163.0L1682.0 162.0L1681.0 162.0L1681.0 161.0L1680.0 161.0L1679.0 159.0L1677.0 159.0L1677.0 158.0L1676.0 158.0L1675.0 156.0L1671.0 155.0L1670.0 153.0L1668.0 153.0L1668.0 152.0L1666.0 152.0L1666.0 151.0L1664.0 151.0L1664.0 150.0L1662.0 150.0L1662.0 149.0L1659.0 149.0L1659.0 148.0L1656.0 148.0L1656.0 147.0L1653.0 147.0L1653.0 146.0L1649.0 146.0L1649.0 145.0L1644.0 145.0L1644.0 144.0L1637.0 144.0L1637.0 143.0L1613.0 143.0L1613.0 144.0L1601.0 145.0L1601.0 146.0L1598.0 146.0L1598.0 147.0L1592.0 148.0L1592.0 149.0L1590.0 149.0L1590.0 150.0L1588.0 150.0L1588.0 151.0L1584.0 152.0L1584.0 153.0L1583.0 153.0L1583.0 154.0L1581.0 154.0L1580.0 156.0L1578.0 156.0L1578.0 157.0L1577.0 157.0L1577.0 158.0L1576.0 158.0L1576.0 159.0L1575.0 159.0L1575.0 160.0L1574.0 160.0L1574.0 161.0L1572.0 162.0L1572.0 164.0L1570.0 165.0L1570.0 167.0L1569.0 167.0L1569.0 169.0L1568.0 169.0L1568.0 171.0L1567.0 171.0L1567.0 174.0L1566.0 174.0L1566.0 178.0L1565.0 178.0L1565.0 190.0L1566.0 190.0L1566.0 194.0L1567.0 194.0L1568.0 198.0L1570.0 199.0L1570.0 201.0L1571.0 201.0L1571.0 202.0L1572.0 202.0L1572.0 203.0L1573.0 203.0L1574.0 205.0L1576.0 205.0L1576.0 206.0L1577.0 206.0L1578.0 208.0L1580.0 208.0L1580.0 209.0L1582.0 209.0L1583.0 211.0L1585.0 211.0L1585.0 212.0L1587.0 212.0L1587.0 213.0L1590.0 213.0L1590.0 214.0L1592.0 214.0L1592.0 215.0L1594.0 215.0L1594.0 216.0L1597.0 216.0L1597.0 217.0L1600.0 217.0L1600.0 218.0L1603.0 218.0L1603.0 219.0L1606.0 219.0L1606.0 220.0L1609.0 220.0L1609.0 221.0L1612.0 221.0L1612.0 222.0L1616.0 222.0L1616.0 223.0L1619.0 223.0L1619.0 224.0L1623.0 224.0L1623.0 225.0L1631.0 226.0L1631.0 227.0L1634.0 227.0L1634.0 228.0L1642.0 229.0L1642.0 230.0L1645.0 230.0L1645.0 231.0L1649.0 231.0L1649.0 232.0L1652.0 232.0L1652.0 233.0L1655.0 233.0L1655.0 234.0L1659.0 234.0L1659.0 235.0L1662.0 235.0L1662.0 236.0L1664.0 236.0L1664.0 237.0L1667.0 237.0L1667.0 238.0L1673.0 239.0L1673.0 240.0L1675.0 240.0L1675.0 241.0L1677.0 241.0L1677.0 242.0L1680.0 242.0L1680.0 243.0L1682.0 243.0L1682.0 244.0L1684.0 244.0L1684.0 245.0L1686.0 245.0L1686.0 246.0L1690.0 247.0L1690.0 248.0L1691.0 248.0L1691.0 249.0L1693.0 249.0L1694.0 251.0L1696.0 251.0L1696.0 252.0L1697.0 252.0L1697.0 253.0L1698.0 253.0L1698.0 254.0L1699.0 254.0L1699.0 255.0L1700.0 255.0L1700.0 256.0L1701.0 256.0L1701.0 257.0L1702.0 257.0L1702.0 258.0L1703.0 258.0L1703.0 259.0L1704.0 259.0L1704.0 260.0L1706.0 261.0L1706.0 263.0L1708.0 264.0L1708.0 266.0L1709.0 266.0L1709.0 268.0L1710.0 268.0L1710.0 271.0L1711.0 271.0L1711.0 274.0L1712.0 274.0L1712.0 277.0L1713.0 277.0L1713.0 282.0L1714.0 282.0L1714.0 300.0L1713.0 300.0L1713.0 306.0L1712.0 306.0L1712.0 310.0L1711.0 310.0L1711.0 313.0L1710.0 313.0L1710.0 315.0L1709.0 315.0L1709.0 318.0L1707.0 319.0L1706.0 323.0L1704.0 324.0L1704.0 326.0L1703.0 326.0L1703.0 327.0L1702.0 327.0L1702.0 328.0L1701.0 328.0L1701.0 329.0L1700.0 329.0L1700.0 330.0L1699.0 330.0L1699.0 331.0L1698.0 331.0L1698.0 332.0L1697.0 332.0L1697.0 333.0L1696.0 333.0L1696.0 334.0L1695.0 334.0L1695.0 335.0L1694.0 335.0L1693.0 337.0L1691.0 337.0L1691.0 338.0L1690.0 338.0L1690.0 339.0L1688.0 339.0L1687.0 341.0L1685.0 341.0L1685.0 342.0L1683.0 342.0L1683.0 343.0L1681.0 343.0L1681.0 344.0L1679.0 344.0L1679.0 345.0L1677.0 345.0L1677.0 346.0L1675.0 346.0L1675.0 347.0L1672.0 347.0L1672.0 348.0L1669.0 348.0L1669.0 349.0L1666.0 349.0L1666.0 350.0L1661.0 350.0L1661.0 351.0L1657.0 351.0L1657.0 352.0L1651.0 352.0L1651.0 353.0L1639.0 353.0L1639.0 354.0L1623.0 354.0L1623.0 353.0L1612.0 353.0L1612.0 352.0L1605.0 352.0L1605.0 351.0L1601.0 351.0L1601.0 350.0L1596.0 350.0L1596.0 349.0L1593.0 349.0L1593.0 348.0L1590.0 348.0L1590.0 347.0L1584.0 346.0L1584.0 345.0L1582.0 345.0L1582.0 344.0L1580.0 344.0L1580.0 343.0L1578.0 343.0L1578.0 342.0L1576.0 342.0L1576.0 341.0L1572.0 340.0L1572.0 339.0L1571.0 339.0L1571.0 338.0L1569.0 338.0L1568.0 336.0L1566.0 336.0L1566.0 335.0L1565.0 335.0L1565.0 334.0L1564.0 334.0L1563.0 332.0L1561.0 332.0L1561.0 331.0L1560.0 331.0L1560.0 330.0L1559.0 330.0L1559.0 329.0L1558.0 329.0L1558.0 328.0L1557.0 328.0L1557.0 327.0L1555.0 326.0L1555.0 324.0L1554.0 324.0L1554.0 323.0L1553.0 323.0L1553.0 322.0L1551.0 321.0L1551.0 319.0L1549.0 318.0L1549.0 316.0L1548.0 316.0L1548.0 314.0L1547.0 314.0L1547.0 312.0L1546.0 312.0L1546.0 310.0L1545.0 310.0L1545.0 308.0L1544.0 308.0L1544.0 305.0L1543.0 305.0L1542.0 299.0L1541.0 299.0L1541.0 296.0L1543.0 296.0L1543.0 295.0L1549.0 295.0L1549.0 294.0L1554.0 294.0L1554.0 293.0L1558.0 293.0L1558.0 294.0L1559.0 294.0L1559.0 297.0L1560.0 297.0L1560.0 300.0L1561.0 300.0L1562.0 304.0L1564.0 305.0L1564.0 307.0L1566.0 308.0L1566.0 310.0L1567.0 310.0L1567.0 311.0L1568.0 311.0L1568.0 312.0L1569.0 312.0L1569.0 313.0L1570.0 313.0L1570.0 314.0L1571.0 314.0L1571.0 315.0L1572.0 315.0L1572.0 316.0L1573.0 316.0L1573.0 317.0L1574.0 317.0L1574.0 318.0L1575.0 318.0L1575.0 319.0L1576.0 319.0L1577.0 321.0L1579.0 321.0L1579.0 322.0L1580.0 322.0L1580.0 323.0L1582.0 323.0L1583.0 325.0L1585.0 325.0L1585.0 326.0L1587.0 326.0L1587.0 327.0L1589.0 327.0L1589.0 328.0L1591.0 328.0L1591.0 329.0L1593.0 329.0L1593.0 330.0L1596.0 330.0L1596.0 331.0L1599.0 331.0L1599.0 332.0L1605.0 333.0L1605.0 334.0L1610.0 334.0L1610.0 335.0L1616.0 335.0L1616.0 336.0L1629.0 336.0L1629.0 337.0L1649.0 336.0L1649.0 335.0L1659.0 334.0L1659.0 333.0L1665.0 332.0L1665.0 331.0L1667.0 331.0L1667.0 330.0L1670.0 330.0L1671.0 328.0L1673.0 328.0L1673.0 327.0L1677.0 326.0L1677.0 325.0L1678.0 325.0L1679.0 323.0L1681.0 323.0L1681.0 322.0L1682.0 322.0L1682.0 321.0L1683.0 321.0L1683.0 320.0L1684.0 320.0L1684.0 319.0L1685.0 319.0L1685.0 318.0L1687.0 317.0L1687.0 315.0L1688.0 315.0L1688.0 314.0L1690.0 313.0L1690.0 311.0L1691.0 311.0L1691.0 309.0L1692.0 309.0L1692.0 307.0L1693.0 307.0L1693.0 304.0L1694.0 304.0L1694.0 301.0L1695.0 301.0L1695.0 296.0L1696.0 296.0L1696.0 284.0L1695.0 284.0L1695.0 279.0L1694.0 279.0L1694.0 276.0L1693.0 276.0L1692.0 272.0L1690.0 271.0L1690.0 269.0L1689.0 269.0L1689.0 268.0L1688.0 268.0L1687.0 266.0L1685.0 266.0L1685.0 265.0L1684.0 265.0L1683.0 263.0L1681.0 263.0L1681.0 262.0L1679.0 262.0L1679.0 261.0L1677.0 261.0L1677.0 260.0L1675.0 260.0L1675.0 259.0L1673.0 259.0L1673.0 258.0L1671.0 258.0L1671.0 257.0L1668.0 257.0L1668.0 256.0L1666.0 256.0L1666.0 255.0L1663.0 255.0L1663.0 254.0L1660.0 254.0L1660.0 253.0L1654.0 252.0L1654.0 251.0L1652.0 251.0L1652.0 250.0L1648.0 250.0L1648.0 249.0L1645.0 249.0L1645.0 248.0L1642.0 248.0L1642.0 247.0L1638.0 247.0L1638.0 246.0L1635.0 246.0L1635.0 245.0L1631.0 245.0L1631.0 244.0L1628.0 244.0L1628.0 243.0L1624.0 243.0L1624.0 242.0L1621.0 242.0L1621.0 241.0L1617.0 241.0L1617.0 240.0L1614.0 240.0L1614.0 239.0L1610.0 239.0L1610.0 238.0L1607.0 238.0L1607.0 237.0L1604.0 237.0L1604.0 236.0L1601.0 236.0L1601.0 235.0L1598.0 235.0L1598.0 234.0L1592.0 233.0L1592.0 232.0L1590.0 232.0L1590.0 231.0L1587.0 231.0L1587.0 230.0L1585.0 230.0L1585.0 229.0L1582.0 229.0L1582.0 228.0L1580.0 228.0L1580.0 227.0L1577.0 227.0L1576.0 225.0L1574.0 225.0L1574.0 224.0L1572.0 224.0L1572.0 223.0L1568.0 222.0L1568.0 221.0L1567.0 221.0L1567.0 220.0L1565.0 220.0L1565.0 219.0L1564.0 219.0L1563.0 217.0L1561.0 217.0L1561.0 216.0L1560.0 216.0L1560.0 215.0L1559.0 215.0L1559.0 214.0L1558.0 214.0L1558.0 213.0L1557.0 213.0L1557.0 212.0L1555.0 211.0L1555.0 209.0L1553.0 208.0L1553.0 206.0L1552.0 206.0L1552.0 204.0L1551.0 204.0L1551.0 202.0L1550.0 202.0L1550.0 199.0L1549.0 199.0L1549.0 196.0L1548.0 196.0L1548.0 191.0L1547.0 191.0L1547.0 178.0L1548.0 178.0L1548.0 172.0L1549.0 172.0L1549.0 168.0L1550.0 168.0L1550.0 166.0L1551.0 166.0L1551.0 164.0L1552.0 164.0L1552.0 161.0L1554.0 160.0L1555.0 156.0L1556.0 156.0L1556.0 155.0L1558.0 154.0L1558.0 152.0L1559.0 152.0L1559.0 151.0L1560.0 151.0L1560.0 150.0L1561.0 150.0L1561.0 149.0L1562.0 149.0L1562.0 148.0L1563.0 148.0L1563.0 147.0L1564.0 147.0L1565.0 145.0L1567.0 145.0L1567.0 144.0L1568.0 144.0L1569.0 142.0L1571.0 142.0L1571.0 141.0L1572.0 141.0L1572.0 140.0L1574.0 140.0L1575.0 138.0L1577.0 138.0L1577.0 137.0L1579.0 137.0L1579.0 136.0L1581.0 136.0L1581.0 135.0L1583.0 135.0L1583.0 134.0L1585.0 134.0L1585.0 133.0L1588.0 133.0L1588.0 132.0L1591.0 132.0L1591.0 131.0L1594.0 131.0L1594.0 130.0L1598.0 130.0L1598.0 129.0L1602.0 129.0L1602.0 128.0L1607.0 128.0L1607.0 127.0L1615.0 127.0L1615.0 126.0ZM1884.0 126.0L1906.0 126.0L1906.0 127.0L1913.0 127.0L1913.0 128.0L1918.0 128.0L1918.0 129.0L1922.0 129.0L1922.0 130.0L1928.0 131.0L1928.0 132.0L1930.0 132.0L1930.0 133.0L1933.0 133.0L1933.0 134.0L1935.0 134.0L1935.0 135.0L1939.0 136.0L1940.0 138.0L1944.0 139.0L1944.0 140.0L1945.0 140.0L1945.0 141.0L1946.0 141.0L1947.0 143.0L1949.0 143.0L1949.0 144.0L1950.0 144.0L1950.0 145.0L1951.0 145.0L1951.0 146.0L1952.0 146.0L1953.0 148.0L1955.0 148.0L1955.0 149.0L1956.0 149.0L1956.0 151.0L1957.0 151.0L1957.0 152.0L1958.0 152.0L1958.0 153.0L1959.0 153.0L1959.0 154.0L1960.0 154.0L1960.0 155.0L1961.0 155.0L1961.0 156.0L1963.0 157.0L1963.0 159.0L1965.0 160.0L1965.0 162.0L1967.0 163.0L1967.0 165.0L1968.0 165.0L1968.0 166.0L1969.0 166.0L1969.0 168.0L1971.0 169.0L1971.0 171.0L1972.0 171.0L1973.0 175.0L1974.0 175.0L1974.0 132.0L1990.0 132.0L1990.0 347.0L1989.0 347.0L1989.0 365.0L1988.0 365.0L1988.0 375.0L1987.0 375.0L1986.0 387.0L1985.0 387.0L1985.0 390.0L1984.0 390.0L1983.0 398.0L1982.0 398.0L1982.0 400.0L1981.0 400.0L1980.0 406.0L1979.0 406.0L1979.0 408.0L1978.0 408.0L1978.0 410.0L1977.0 410.0L1976.0 414.0L1974.0 415.0L1974.0 417.0L1972.0 418.0L1972.0 420.0L1971.0 420.0L1971.0 421.0L1969.0 422.0L1969.0 424.0L1968.0 424.0L1968.0 425.0L1967.0 425.0L1967.0 426.0L1966.0 426.0L1966.0 427.0L1965.0 427.0L1965.0 428.0L1964.0 428.0L1964.0 429.0L1963.0 429.0L1963.0 430.0L1962.0 430.0L1961.0 432.0L1959.0 432.0L1959.0 433.0L1958.0 433.0L1957.0 435.0L1955.0 435.0L1954.0 437.0L1950.0 438.0L1949.0 440.0L1947.0 440.0L1947.0 441.0L1945.0 441.0L1945.0 442.0L1942.0 442.0L1942.0 443.0L1939.0 443.0L1939.0 444.0L1937.0 444.0L1937.0 445.0L1934.0 445.0L1934.0 446.0L1929.0 446.0L1929.0 447.0L1925.0 447.0L1925.0 448.0L1919.0 448.0L1919.0 449.0L1911.0 449.0L1911.0 450.0L1886.0 450.0L1886.0 449.0L1879.0 449.0L1879.0 448.0L1873.0 448.0L1873.0 447.0L1865.0 446.0L1865.0 445.0L1859.0 444.0L1859.0 443.0L1857.0 443.0L1857.0 442.0L1854.0 442.0L1854.0 441.0L1852.0 441.0L1852.0 440.0L1850.0 440.0L1850.0 439.0L1846.0 438.0L1845.0 436.0L1843.0 436.0L1843.0 435.0L1842.0 435.0L1842.0 434.0L1840.0 434.0L1839.0 432.0L1837.0 432.0L1837.0 431.0L1836.0 431.0L1836.0 430.0L1835.0 430.0L1834.0 428.0L1832.0 428.0L1832.0 427.0L1831.0 427.0L1831.0 426.0L1830.0 426.0L1830.0 425.0L1829.0 425.0L1829.0 424.0L1828.0 424.0L1828.0 423.0L1827.0 423.0L1827.0 422.0L1825.0 421.0L1825.0 419.0L1824.0 419.0L1824.0 418.0L1823.0 418.0L1823.0 417.0L1821.0 416.0L1821.0 414.0L1820.0 414.0L1820.0 413.0L1818.0 412.0L1817.0 408.0L1815.0 407.0L1815.0 405.0L1814.0 405.0L1814.0 403.0L1813.0 403.0L1813.0 401.0L1815.0 401.0L1816.0 399.0L1818.0 399.0L1819.0 397.0L1821.0 397.0L1822.0 395.0L1824.0 395.0L1825.0 393.0L1827.0 393.0L1827.0 392.0L1828.0 392.0L1828.0 393.0L1829.0 393.0L1829.0 395.0L1830.0 395.0L1830.0 397.0L1831.0 397.0L1831.0 399.0L1832.0 399.0L1832.0 400.0L1833.0 400.0L1833.0 402.0L1834.0 402.0L1834.0 403.0L1836.0 404.0L1836.0 406.0L1837.0 406.0L1837.0 407.0L1838.0 407.0L1838.0 408.0L1840.0 409.0L1840.0 411.0L1842.0 411.0L1842.0 412.0L1843.0 412.0L1843.0 413.0L1844.0 413.0L1844.0 414.0L1845.0 414.0L1845.0 415.0L1846.0 415.0L1846.0 416.0L1847.0 416.0L1848.0 418.0L1852.0 419.0L1853.0 421.0L1855.0 421.0L1855.0 422.0L1857.0 422.0L1857.0 423.0L1859.0 423.0L1859.0 424.0L1861.0 424.0L1861.0 425.0L1864.0 425.0L1864.0 426.0L1866.0 426.0L1866.0 427.0L1868.0 427.0L1868.0 428.0L1872.0 428.0L1872.0 429.0L1875.0 429.0L1875.0 430.0L1879.0 430.0L1879.0 431.0L1885.0 431.0L1885.0 432.0L1895.0 432.0L1895.0 433.0L1905.0 433.0L1905.0 432.0L1915.0 432.0L1915.0 431.0L1921.0 431.0L1921.0 430.0L1929.0 429.0L1929.0 428.0L1932.0 428.0L1932.0 427.0L1934.0 427.0L1934.0 426.0L1936.0 426.0L1936.0 425.0L1938.0 425.0L1938.0 424.0L1942.0 423.0L1942.0 422.0L1943.0 422.0L1944.0 420.0L1946.0 420.0L1946.0 419.0L1947.0 419.0L1947.0 418.0L1948.0 418.0L1948.0 417.0L1949.0 417.0L1949.0 416.0L1950.0 416.0L1950.0 415.0L1951.0 415.0L1951.0 414.0L1952.0 414.0L1952.0 413.0L1953.0 413.0L1953.0 412.0L1954.0 412.0L1954.0 411.0L1956.0 410.0L1956.0 408.0L1958.0 407.0L1958.0 405.0L1959.0 405.0L1960.0 401.0L1962.0 400.0L1962.0 397.0L1963.0 397.0L1963.0 395.0L1964.0 395.0L1964.0 392.0L1965.0 392.0L1965.0 390.0L1966.0 390.0L1966.0 386.0L1967.0 386.0L1967.0 382.0L1968.0 382.0L1968.0 378.0L1969.0 378.0L1970.0 366.0L1971.0 366.0L1971.0 355.0L1972.0 355.0L1972.0 308.0L1971.0 308.0L1970.0 312.0L1968.0 313.0L1967.0 317.0L1965.0 318.0L1965.0 320.0L1964.0 320.0L1964.0 321.0L1963.0 321.0L1963.0 322.0L1961.0 323.0L1961.0 325.0L1960.0 325.0L1960.0 326.0L1959.0 326.0L1959.0 327.0L1958.0 327.0L1958.0 328.0L1957.0 328.0L1957.0 329.0L1956.0 329.0L1956.0 330.0L1955.0 330.0L1955.0 331.0L1954.0 331.0L1954.0 332.0L1953.0 332.0L1953.0 333.0L1952.0 333.0L1952.0 334.0L1951.0 334.0L1951.0 335.0L1950.0 335.0L1950.0 336.0L1949.0 336.0L1948.0 338.0L1946.0 338.0L1946.0 339.0L1945.0 339.0L1944.0 341.0L1942.0 341.0L1941.0 343.0L1939.0 343.0L1939.0 344.0L1937.0 344.0L1937.0 345.0L1935.0 345.0L1935.0 346.0L1933.0 346.0L1933.0 347.0L1931.0 347.0L1931.0 348.0L1928.0 348.0L1928.0 349.0L1926.0 349.0L1926.0 350.0L1923.0 350.0L1923.0 351.0L1919.0 351.0L1919.0 352.0L1914.0 352.0L1914.0 353.0L1908.0 353.0L1908.0 354.0L1885.0 354.0L1885.0 353.0L1878.0 353.0L1878.0 352.0L1873.0 352.0L1873.0 351.0L1869.0 351.0L1869.0 350.0L1863.0 349.0L1863.0 348.0L1861.0 348.0L1861.0 347.0L1858.0 347.0L1858.0 346.0L1856.0 346.0L1856.0 345.0L1852.0 344.0L1851.0 342.0L1849.0 342.0L1848.0 340.0L1846.0 340.0L1846.0 339.0L1845.0 339.0L1845.0 338.0L1844.0 338.0L1843.0 336.0L1841.0 336.0L1841.0 335.0L1840.0 335.0L1840.0 334.0L1839.0 334.0L1839.0 333.0L1838.0 333.0L1838.0 332.0L1837.0 332.0L1837.0 331.0L1836.0 331.0L1836.0 330.0L1835.0 330.0L1835.0 329.0L1834.0 329.0L1834.0 328.0L1833.0 328.0L1833.0 327.0L1832.0 327.0L1832.0 326.0L1831.0 326.0L1831.0 325.0L1830.0 325.0L1830.0 324.0L1829.0 324.0L1829.0 323.0L1827.0 322.0L1827.0 320.0L1825.0 319.0L1825.0 317.0L1824.0 317.0L1824.0 316.0L1823.0 316.0L1823.0 314.0L1821.0 313.0L1821.0 311.0L1820.0 311.0L1820.0 309.0L1819.0 309.0L1819.0 307.0L1818.0 307.0L1818.0 305.0L1817.0 305.0L1817.0 303.0L1816.0 303.0L1816.0 301.0L1815.0 301.0L1815.0 299.0L1814.0 299.0L1814.0 297.0L1813.0 297.0L1813.0 294.0L1812.0 294.0L1812.0 291.0L1811.0 291.0L1811.0 288.0L1810.0 288.0L1810.0 285.0L1809.0 285.0L1809.0 281.0L1808.0 281.0L1808.0 277.0L1807.0 277.0L1807.0 273.0L1806.0 273.0L1806.0 268.0L1805.0 268.0L1805.0 261.0L1804.0 261.0L1804.0 249.0L1803.0 249.0L1803.0 229.0L1804.0 229.0L1804.0 218.0L1805.0 218.0L1805.0 211.0L1806.0 211.0L1807.0 201.0L1808.0 201.0L1808.0 197.0L1809.0 197.0L1809.0 194.0L1810.0 194.0L1810.0 191.0L1811.0 191.0L1811.0 188.0L1812.0 188.0L1813.0 182.0L1814.0 182.0L1814.0 180.0L1815.0 180.0L1815.0 178.0L1816.0 178.0L1816.0 176.0L1817.0 176.0L1817.0 174.0L1818.0 174.0L1818.0 172.0L1819.0 172.0L1820.0 168.0L1821.0 168.0L1821.0 167.0L1822.0 167.0L1822.0 165.0L1824.0 164.0L1825.0 160.0L1826.0 160.0L1826.0 159.0L1827.0 159.0L1827.0 158.0L1828.0 158.0L1828.0 157.0L1830.0 156.0L1830.0 154.0L1831.0 154.0L1831.0 153.0L1832.0 153.0L1832.0 152.0L1833.0 152.0L1833.0 151.0L1834.0 151.0L1834.0 150.0L1835.0 150.0L1835.0 149.0L1836.0 149.0L1836.0 148.0L1837.0 148.0L1837.0 147.0L1838.0 147.0L1839.0 145.0L1841.0 145.0L1841.0 144.0L1842.0 144.0L1842.0 143.0L1843.0 143.0L1843.0 142.0L1844.0 142.0L1845.0 140.0L1847.0 140.0L1848.0 138.0L1850.0 138.0L1850.0 137.0L1852.0 137.0L1853.0 135.0L1855.0 135.0L1855.0 134.0L1857.0 134.0L1857.0 133.0L1860.0 133.0L1860.0 132.0L1862.0 132.0L1862.0 131.0L1865.0 131.0L1865.0 130.0L1868.0 130.0L1868.0 129.0L1872.0 129.0L1872.0 128.0L1877.0 128.0L1877.0 127.0L1884.0 127.0L1884.0 126.0ZM2313.0 126.0L2338.0 126.0L2338.0 127.0L2346.0 127.0L2346.0 128.0L2351.0 128.0L2351.0 129.0L2355.0 129.0L2355.0 130.0L2359.0 130.0L2359.0 131.0L2362.0 131.0L2362.0 132.0L2368.0 133.0L2368.0 134.0L2370.0 134.0L2370.0 135.0L2372.0 135.0L2372.0 136.0L2374.0 136.0L2374.0 137.0L2376.0 137.0L2376.0 138.0L2380.0 139.0L2381.0 141.0L2383.0 141.0L2384.0 143.0L2386.0 143.0L2386.0 144.0L2387.0 144.0L2388.0 146.0L2390.0 146.0L2390.0 147.0L2391.0 147.0L2391.0 148.0L2392.0 148.0L2392.0 149.0L2393.0 149.0L2393.0 150.0L2394.0 150.0L2394.0 151.0L2395.0 151.0L2395.0 152.0L2396.0 152.0L2396.0 153.0L2397.0 153.0L2397.0 154.0L2399.0 155.0L2399.0 157.0L2400.0 157.0L2400.0 158.0L2402.0 159.0L2402.0 161.0L2404.0 162.0L2404.0 164.0L2405.0 164.0L2405.0 166.0L2406.0 166.0L2406.0 168.0L2407.0 168.0L2407.0 170.0L2408.0 170.0L2408.0 172.0L2409.0 172.0L2409.0 175.0L2410.0 175.0L2410.0 178.0L2411.0 178.0L2411.0 183.0L2412.0 183.0L2412.0 189.0L2407.0 189.0L2407.0 190.0L2401.0 190.0L2401.0 191.0L2396.0 191.0L2396.0 192.0L2395.0 192.0L2395.0 189.0L2394.0 189.0L2394.0 185.0L2393.0 185.0L2393.0 181.0L2392.0 181.0L2392.0 179.0L2391.0 179.0L2391.0 177.0L2390.0 177.0L2389.0 173.0L2387.0 172.0L2387.0 170.0L2385.0 169.0L2385.0 167.0L2384.0 167.0L2384.0 166.0L2383.0 166.0L2383.0 165.0L2382.0 165.0L2382.0 164.0L2381.0 164.0L2381.0 163.0L2380.0 163.0L2380.0 162.0L2379.0 162.0L2379.0 161.0L2378.0 161.0L2377.0 159.0L2375.0 159.0L2375.0 158.0L2374.0 158.0L2373.0 156.0L2369.0 155.0L2368.0 153.0L2366.0 153.0L2366.0 152.0L2364.0 152.0L2364.0 151.0L2362.0 151.0L2362.0 150.0L2360.0 150.0L2360.0 149.0L2357.0 149.0L2357.0 148.0L2354.0 148.0L2354.0 147.0L2351.0 147.0L2351.0 146.0L2347.0 146.0L2347.0 145.0L2342.0 145.0L2342.0 144.0L2335.0 144.0L2335.0 143.0L2311.0 143.0L2311.0 144.0L2299.0 145.0L2299.0 146.0L2296.0 146.0L2296.0 147.0L2290.0 148.0L2290.0 149.0L2288.0 149.0L2288.0 150.0L2286.0 150.0L2286.0 151.0L2282.0 152.0L2282.0 153.0L2281.0 153.0L2281.0 154.0L2279.0 154.0L2278.0 156.0L2276.0 156.0L2276.0 157.0L2275.0 157.0L2275.0 158.0L2274.0 158.0L2274.0 159.0L2273.0 159.0L2273.0 160.0L2272.0 160.0L2272.0 161.0L2270.0 162.0L2270.0 164.0L2268.0 165.0L2268.0 167.0L2267.0 167.0L2267.0 169.0L2266.0 169.0L2266.0 171.0L2265.0 171.0L2265.0 174.0L2264.0 174.0L2264.0 178.0L2263.0 178.0L2263.0 190.0L2264.0 190.0L2264.0 194.0L2265.0 194.0L2266.0 198.0L2268.0 199.0L2268.0 201.0L2269.0 201.0L2269.0 202.0L2270.0 202.0L2270.0 203.0L2271.0 203.0L2272.0 205.0L2274.0 205.0L2274.0 206.0L2275.0 206.0L2276.0 208.0L2278.0 208.0L2278.0 209.0L2280.0 209.0L2281.0 211.0L2283.0 211.0L2283.0 212.0L2285.0 212.0L2285.0 213.0L2288.0 213.0L2288.0 214.0L2290.0 214.0L2290.0 215.0L2292.0 215.0L2292.0 216.0L2295.0 216.0L2295.0 217.0L2298.0 217.0L2298.0 218.0L2301.0 218.0L2301.0 219.0L2304.0 219.0L2304.0 220.0L2307.0 220.0L2307.0 221.0L2310.0 221.0L2310.0 222.0L2314.0 222.0L2314.0 223.0L2317.0 223.0L2317.0 224.0L2321.0 224.0L2321.0 225.0L2329.0 226.0L2329.0 227.0L2332.0 227.0L2332.0 228.0L2340.0 229.0L2340.0 230.0L2343.0 230.0L2343.0 231.0L2347.0 231.0L2347.0 232.0L2350.0 232.0L2350.0 233.0L2353.0 233.0L2353.0 234.0L2357.0 234.0L2357.0 235.0L2360.0 235.0L2360.0 236.0L2362.0 236.0L2362.0 237.0L2365.0 237.0L2365.0 238.0L2371.0 239.0L2371.0 240.0L2373.0 240.0L2373.0 241.0L2375.0 241.0L2375.0 242.0L2378.0 242.0L2378.0 243.0L2380.0 243.0L2380.0 244.0L2382.0 244.0L2382.0 245.0L2384.0 245.0L2384.0 246.0L2388.0 247.0L2388.0 248.0L2389.0 248.0L2389.0 249.0L2391.0 249.0L2392.0 251.0L2394.0 251.0L2394.0 252.0L2395.0 252.0L2395.0 253.0L2396.0 253.0L2396.0 254.0L2397.0 254.0L2397.0 255.0L2398.0 255.0L2398.0 256.0L2399.0 256.0L2399.0 257.0L2400.0 257.0L2400.0 258.0L2401.0 258.0L2401.0 259.0L2402.0 259.0L2402.0 260.0L2404.0 261.0L2404.0 263.0L2406.0 264.0L2406.0 266.0L2407.0 266.0L2407.0 268.0L2408.0 268.0L2408.0 271.0L2409.0 271.0L2409.0 274.0L2410.0 274.0L2410.0 277.0L2411.0 277.0L2411.0 282.0L2412.0 282.0L2412.0 300.0L2411.0 300.0L2411.0 306.0L2410.0 306.0L2410.0 310.0L2409.0 310.0L2409.0 313.0L2408.0 313.0L2408.0 315.0L2407.0 315.0L2407.0 318.0L2405.0 319.0L2404.0 323.0L2402.0 324.0L2402.0 326.0L2401.0 326.0L2401.0 327.0L2400.0 327.0L2400.0 328.0L2399.0 328.0L2399.0 329.0L2398.0 329.0L2398.0 330.0L2397.0 330.0L2397.0 331.0L2396.0 331.0L2396.0 332.0L2395.0 332.0L2395.0 333.0L2394.0 333.0L2394.0 334.0L2393.0 334.0L2393.0 335.0L2392.0 335.0L2391.0 337.0L2389.0 337.0L2389.0 338.0L2388.0 338.0L2388.0 339.0L2386.0 339.0L2385.0 341.0L2383.0 341.0L2383.0 342.0L2381.0 342.0L2381.0 343.0L2379.0 343.0L2379.0 344.0L2377.0 344.0L2377.0 345.0L2375.0 345.0L2375.0 346.0L2373.0 346.0L2373.0 347.0L2370.0 347.0L2370.0 348.0L2367.0 348.0L2367.0 349.0L2364.0 349.0L2364.0 350.0L2359.0 350.0L2359.0 351.0L2355.0 351.0L2355.0 352.0L2349.0 352.0L2349.0 353.0L2337.0 353.0L2337.0 354.0L2321.0 354.0L2321.0 353.0L2310.0 353.0L2310.0 352.0L2303.0 352.0L2303.0 351.0L2299.0 351.0L2299.0 350.0L2294.0 350.0L2294.0 349.0L2291.0 349.0L2291.0 348.0L2288.0 348.0L2288.0 347.0L2282.0 346.0L2282.0 345.0L2280.0 345.0L2280.0 344.0L2278.0 344.0L2278.0 343.0L2276.0 343.0L2276.0 342.0L2274.0 342.0L2274.0 341.0L2270.0 340.0L2270.0 339.0L2269.0 339.0L2269.0 338.0L2267.0 338.0L2266.0 336.0L2264.0 336.0L2264.0 335.0L2263.0 335.0L2263.0 334.0L2262.0 334.0L2261.0 332.0L2259.0 332.0L2259.0 331.0L2258.0 331.0L2258.0 330.0L2257.0 330.0L2257.0 329.0L2256.0 329.0L2256.0 328.0L2255.0 328.0L2255.0 327.0L2253.0 326.0L2253.0 324.0L2252.0 324.0L2252.0 323.0L2251.0 323.0L2251.0 322.0L2249.0 321.0L2249.0 319.0L2247.0 318.0L2247.0 316.0L2246.0 316.0L2246.0 314.0L2245.0 314.0L2245.0 312.0L2244.0 312.0L2244.0 310.0L2243.0 310.0L2243.0 308.0L2242.0 308.0L2242.0 305.0L2241.0 305.0L2240.0 299.0L2239.0 299.0L2239.0 296.0L2241.0 296.0L2241.0 295.0L2247.0 295.0L2247.0 294.0L2252.0 294.0L2252.0 293.0L2256.0 293.0L2256.0 294.0L2257.0 294.0L2257.0 297.0L2258.0 297.0L2258.0 300.0L2259.0 300.0L2260.0 304.0L2262.0 305.0L2262.0 307.0L2264.0 308.0L2264.0 310.0L2265.0 310.0L2265.0 311.0L2266.0 311.0L2266.0 312.0L2267.0 312.0L2267.0 313.0L2268.0 313.0L2268.0 314.0L2269.0 314.0L2269.0 315.0L2270.0 315.0L2270.0 316.0L2271.0 316.0L2271.0 317.0L2272.0 317.0L2272.0 318.0L2273.0 318.0L2273.0 319.0L2274.0 319.0L2275.0 321.0L2277.0 321.0L2277.0 322.0L2278.0 322.0L2278.0 323.0L2280.0 323.0L2281.0 325.0L2283.0 325.0L2283.0 326.0L2285.0 326.0L2285.0 327.0L2287.0 327.0L2287.0 328.0L2289.0 328.0L2289.0 329.0L2291.0 329.0L2291.0 330.0L2294.0 330.0L2294.0 331.0L2297.0 331.0L2297.0 332.0L2303.0 333.0L2303.0 334.0L2308.0 334.0L2308.0 335.0L2314.0 335.0L2314.0 336.0L2327.0 336.0L2327.0 337.0L2347.0 336.0L2347.0 335.0L2357.0 334.0L2357.0 333.0L2363.0 332.0L2363.0 331.0L2365.0 331.0L2365.0 330.0L2368.0 330.0L2369.0 328.0L2371.0 328.0L2371.0 327.0L2375.0 326.0L2375.0 325.0L2376.0 325.0L2377.0 323.0L2379.0 323.0L2379.0 322.0L2380.0 322.0L2380.0 321.0L2381.0 321.0L2381.0 320.0L2382.0 320.0L2382.0 319.0L2383.0 319.0L2383.0 318.0L2385.0 317.0L2385.0 315.0L2386.0 315.0L2386.0 314.0L2388.0 313.0L2388.0 311.0L2389.0 311.0L2389.0 309.0L2390.0 309.0L2390.0 307.0L2391.0 307.0L2391.0 304.0L2392.0 304.0L2392.0 301.0L2393.0 301.0L2393.0 296.0L2394.0 296.0L2394.0 284.0L2393.0 284.0L2393.0 279.0L2392.0 279.0L2392.0 276.0L2391.0 276.0L2390.0 272.0L2388.0 271.0L2388.0 269.0L2387.0 269.0L2387.0 268.0L2386.0 268.0L2385.0 266.0L2383.0 266.0L2383.0 265.0L2382.0 265.0L2381.0 263.0L2379.0 263.0L2379.0 262.0L2377.0 262.0L2377.0 261.0L2375.0 261.0L2375.0 260.0L2373.0 260.0L2373.0 259.0L2371.0 259.0L2371.0 258.0L2369.0 258.0L2369.0 257.0L2366.0 257.0L2366.0 256.0L2364.0 256.0L2364.0 255.0L2361.0 255.0L2361.0 254.0L2358.0 254.0L2358.0 253.0L2352.0 252.0L2352.0 251.0L2350.0 251.0L2350.0 250.0L2346.0 250.0L2346.0 249.0L2343.0 249.0L2343.0 248.0L2340.0 248.0L2340.0 247.0L2336.0 247.0L2336.0 246.0L2333.0 246.0L2333.0 245.0L2329.0 245.0L2329.0 244.0L2326.0 244.0L2326.0 243.0L2322.0 243.0L2322.0 242.0L2319.0 242.0L2319.0 241.0L2315.0 241.0L2315.0 240.0L2312.0 240.0L2312.0 239.0L2308.0 239.0L2308.0 238.0L2305.0 238.0L2305.0 237.0L2302.0 237.0L2302.0 236.0L2299.0 236.0L2299.0 235.0L2296.0 235.0L2296.0 234.0L2290.0 233.0L2290.0 232.0L2288.0 232.0L2288.0 231.0L2285.0 231.0L2285.0 230.0L2283.0 230.0L2283.0 229.0L2280.0 229.0L2280.0 228.0L2278.0 228.0L2278.0 227.0L2275.0 227.0L2274.0 225.0L2272.0 225.0L2272.0 224.0L2270.0 224.0L2270.0 223.0L2266.0 222.0L2266.0 221.0L2265.0 221.0L2265.0 220.0L2263.0 220.0L2263.0 219.0L2262.0 219.0L2261.0 217.0L2259.0 217.0L2259.0 216.0L2258.0 216.0L2258.0 215.0L2257.0 215.0L2257.0 214.0L2256.0 214.0L2256.0 213.0L2255.0 213.0L2255.0 212.0L2253.0 211.0L2253.0 209.0L2251.0 208.0L2251.0 206.0L2250.0 206.0L2250.0 204.0L2249.0 204.0L2249.0 202.0L2248.0 202.0L2248.0 199.0L2247.0 199.0L2247.0 196.0L2246.0 196.0L2246.0 191.0L2245.0 191.0L2245.0 178.0L2246.0 178.0L2246.0 172.0L2247.0 172.0L2247.0 168.0L2248.0 168.0L2248.0 166.0L2249.0 166.0L2249.0 164.0L2250.0 164.0L2250.0 161.0L2252.0 160.0L2253.0 156.0L2254.0 156.0L2254.0 155.0L2256.0 154.0L2256.0 152.0L2257.0 152.0L2257.0 151.0L2258.0 151.0L2258.0 150.0L2259.0 150.0L2259.0 149.0L2260.0 149.0L2260.0 148.0L2261.0 148.0L2261.0 147.0L2262.0 147.0L2263.0 145.0L2265.0 145.0L2265.0 144.0L2266.0 144.0L2267.0 142.0L2269.0 142.0L2269.0 141.0L2270.0 141.0L2270.0 140.0L2272.0 140.0L2273.0 138.0L2275.0 138.0L2275.0 137.0L2277.0 137.0L2277.0 136.0L2279.0 136.0L2279.0 135.0L2281.0 135.0L2281.0 134.0L2283.0 134.0L2283.0 133.0L2286.0 133.0L2286.0 132.0L2289.0 132.0L2289.0 131.0L2292.0 131.0L2292.0 130.0L2296.0 130.0L2296.0 129.0L2300.0 129.0L2300.0 128.0L2305.0 128.0L2305.0 127.0L2313.0 127.0L2313.0 126.0ZM2116.0 127.0L2133.0 127.0L2133.0 128.0L2141.0 128.0L2141.0 129.0L2146.0 129.0L2146.0 130.0L2150.0 130.0L2150.0 131.0L2156.0 132.0L2156.0 133.0L2158.0 133.0L2158.0 134.0L2161.0 134.0L2161.0 135.0L2163.0 135.0L2163.0 136.0L2165.0 136.0L2165.0 137.0L2169.0 138.0L2170.0 140.0L2172.0 140.0L2173.0 142.0L2175.0 142.0L2175.0 143.0L2176.0 143.0L2176.0 144.0L2177.0 144.0L2178.0 146.0L2180.0 146.0L2180.0 147.0L2181.0 147.0L2181.0 148.0L2182.0 148.0L2182.0 149.0L2183.0 149.0L2183.0 150.0L2184.0 150.0L2184.0 151.0L2185.0 151.0L2185.0 152.0L2186.0 152.0L2186.0 153.0L2188.0 154.0L2188.0 156.0L2189.0 156.0L2189.0 157.0L2191.0 158.0L2191.0 160.0L2193.0 161.0L2193.0 163.0L2195.0 164.0L2196.0 168.0L2198.0 169.0L2198.0 171.0L2199.0 171.0L2199.0 173.0L2200.0 173.0L2200.0 176.0L2201.0 176.0L2201.0 178.0L2202.0 178.0L2202.0 180.0L2203.0 180.0L2203.0 183.0L2204.0 183.0L2204.0 186.0L2205.0 186.0L2205.0 189.0L2206.0 189.0L2206.0 193.0L2207.0 193.0L2207.0 197.0L2208.0 197.0L2208.0 202.0L2209.0 202.0L2209.0 209.0L2210.0 209.0L2210.0 219.0L2211.0 219.0L2211.0 348.0L2194.0 348.0L2194.0 221.0L2193.0 221.0L2193.0 210.0L2192.0 210.0L2192.0 204.0L2191.0 204.0L2191.0 199.0L2190.0 199.0L2190.0 195.0L2189.0 195.0L2189.0 191.0L2188.0 191.0L2187.0 185.0L2186.0 185.0L2186.0 183.0L2185.0 183.0L2185.0 180.0L2184.0 180.0L2183.0 176.0L2181.0 175.0L2180.0 171.0L2179.0 171.0L2179.0 170.0L2177.0 169.0L2177.0 167.0L2176.0 167.0L2176.0 166.0L2175.0 166.0L2175.0 165.0L2174.0 165.0L2174.0 164.0L2173.0 164.0L2173.0 163.0L2172.0 163.0L2172.0 162.0L2171.0 162.0L2171.0 161.0L2170.0 161.0L2170.0 160.0L2169.0 160.0L2169.0 159.0L2168.0 159.0L2168.0 158.0L2167.0 158.0L2166.0 156.0L2164.0 156.0L2163.0 154.0L2161.0 154.0L2160.0 152.0L2158.0 152.0L2158.0 151.0L2156.0 151.0L2156.0 150.0L2154.0 150.0L2154.0 149.0L2151.0 149.0L2151.0 148.0L2148.0 148.0L2148.0 147.0L2145.0 147.0L2145.0 146.0L2141.0 146.0L2141.0 145.0L2134.0 145.0L2134.0 144.0L2111.0 144.0L2111.0 145.0L2104.0 145.0L2104.0 146.0L2101.0 146.0L2101.0 147.0L2097.0 147.0L2097.0 148.0L2094.0 148.0L2094.0 149.0L2092.0 149.0L2092.0 150.0L2090.0 150.0L2090.0 151.0L2088.0 151.0L2088.0 152.0L2084.0 153.0L2083.0 155.0L2081.0 155.0L2081.0 156.0L2080.0 156.0L2079.0 158.0L2077.0 158.0L2077.0 159.0L2076.0 159.0L2076.0 160.0L2075.0 160.0L2075.0 161.0L2074.0 161.0L2074.0 162.0L2073.0 162.0L2073.0 163.0L2072.0 163.0L2072.0 164.0L2070.0 165.0L2070.0 167.0L2069.0 167.0L2069.0 168.0L2067.0 169.0L2067.0 171.0L2065.0 172.0L2065.0 174.0L2063.0 175.0L2063.0 177.0L2062.0 177.0L2062.0 179.0L2061.0 179.0L2061.0 181.0L2060.0 181.0L2060.0 183.0L2059.0 183.0L2059.0 186.0L2058.0 186.0L2058.0 188.0L2057.0 188.0L2057.0 191.0L2056.0 191.0L2056.0 194.0L2055.0 194.0L2055.0 197.0L2054.0 197.0L2054.0 202.0L2053.0 202.0L2053.0 207.0L2052.0 207.0L2052.0 214.0L2051.0 214.0L2051.0 348.0L2033.0 348.0L2033.0 132.0L2049.0 132.0L2049.0 166.0L2050.0 166.0L2050.0 165.0L2051.0 165.0L2051.0 163.0L2052.0 163.0L2052.0 161.0L2053.0 161.0L2053.0 160.0L2054.0 160.0L2054.0 159.0L2056.0 158.0L2056.0 156.0L2057.0 156.0L2057.0 155.0L2058.0 155.0L2058.0 154.0L2059.0 154.0L2059.0 153.0L2060.0 153.0L2060.0 152.0L2061.0 152.0L2061.0 151.0L2062.0 151.0L2062.0 150.0L2063.0 150.0L2063.0 149.0L2064.0 149.0L2064.0 148.0L2065.0 148.0L2065.0 147.0L2066.0 147.0L2066.0 146.0L2067.0 146.0L2068.0 144.0L2070.0 144.0L2070.0 143.0L2071.0 143.0L2071.0 142.0L2073.0 142.0L2074.0 140.0L2078.0 139.0L2079.0 137.0L2082.0 137.0L2082.0 136.0L2084.0 136.0L2084.0 135.0L2086.0 135.0L2086.0 134.0L2088.0 134.0L2088.0 133.0L2091.0 133.0L2091.0 132.0L2095.0 132.0L2095.0 131.0L2098.0 131.0L2098.0 130.0L2102.0 130.0L2102.0 129.0L2107.0 129.0L2107.0 128.0L2116.0 128.0L2116.0 127.0ZM608.0 129.0L611.0 129.0L611.0 130.0L620.0 130.0L620.0 131.0L624.0 131.0L624.0 132.0L625.0 132.0L625.0 148.0L621.0 148.0L621.0 147.0L613.0 147.0L613.0 146.0L602.0 146.0L602.0 147.0L594.0 147.0L594.0 148.0L590.0 148.0L590.0 149.0L584.0 150.0L584.0 151.0L580.0 152.0L579.0 154.0L577.0 154.0L576.0 156.0L574.0 156.0L574.0 157.0L573.0 157.0L573.0 158.0L572.0 158.0L571.0 160.0L569.0 160.0L569.0 161.0L568.0 161.0L568.0 162.0L566.0 163.0L566.0 165.0L565.0 165.0L565.0 166.0L564.0 166.0L564.0 167.0L563.0 167.0L563.0 168.0L561.0 169.0L561.0 171.0L560.0 171.0L560.0 172.0L559.0 172.0L559.0 174.0L557.0 175.0L557.0 177.0L556.0 177.0L556.0 179.0L555.0 179.0L555.0 182.0L554.0 182.0L554.0 184.0L553.0 184.0L553.0 187.0L552.0 187.0L552.0 190.0L551.0 190.0L551.0 194.0L550.0 194.0L550.0 198.0L549.0 198.0L549.0 204.0L548.0 204.0L548.0 211.0L547.0 211.0L547.0 226.0L546.0 226.0L546.0 348.0L529.0 348.0L529.0 132.0L545.0 132.0L545.0 164.0L546.0 164.0L546.0 163.0L547.0 163.0L547.0 161.0L549.0 160.0L549.0 158.0L550.0 158.0L550.0 157.0L552.0 156.0L552.0 154.0L553.0 154.0L553.0 153.0L554.0 153.0L554.0 152.0L555.0 152.0L555.0 151.0L556.0 151.0L556.0 150.0L557.0 150.0L557.0 149.0L558.0 149.0L558.0 148.0L559.0 148.0L559.0 147.0L560.0 147.0L560.0 146.0L561.0 146.0L561.0 145.0L562.0 145.0L563.0 143.0L565.0 143.0L566.0 141.0L570.0 140.0L571.0 138.0L573.0 138.0L573.0 137.0L575.0 137.0L575.0 136.0L578.0 136.0L578.0 135.0L581.0 135.0L581.0 134.0L584.0 134.0L584.0 133.0L587.0 133.0L587.0 132.0L591.0 132.0L591.0 131.0L597.0 131.0L597.0 130.0L608.0 130.0L608.0 129.0ZM308.0 132.0L325.0 132.0L325.0 261.0L326.0 261.0L326.0 271.0L327.0 271.0L327.0 277.0L328.0 277.0L328.0 282.0L329.0 282.0L329.0 286.0L330.0 286.0L330.0 289.0L331.0 289.0L331.0 293.0L332.0 293.0L332.0 295.0L333.0 295.0L333.0 298.0L334.0 298.0L334.0 300.0L335.0 300.0L335.0 302.0L336.0 302.0L337.0 306.0L339.0 307.0L339.0 309.0L341.0 310.0L341.0 312.0L342.0 312.0L342.0 313.0L343.0 313.0L343.0 314.0L345.0 315.0L345.0 317.0L346.0 317.0L346.0 318.0L347.0 318.0L348.0 320.0L350.0 320.0L350.0 321.0L351.0 321.0L351.0 322.0L352.0 322.0L353.0 324.0L355.0 324.0L356.0 326.0L358.0 326.0L359.0 328.0L361.0 328.0L361.0 329.0L363.0 329.0L363.0 330.0L365.0 330.0L365.0 331.0L368.0 331.0L368.0 332.0L371.0 332.0L371.0 333.0L374.0 333.0L374.0 334.0L378.0 334.0L378.0 335.0L384.0 335.0L384.0 336.0L408.0 336.0L408.0 335.0L414.0 335.0L414.0 334.0L418.0 334.0L418.0 333.0L422.0 333.0L422.0 332.0L424.0 332.0L424.0 331.0L427.0 331.0L427.0 330.0L429.0 330.0L429.0 329.0L433.0 328.0L434.0 326.0L436.0 326.0L437.0 324.0L439.0 324.0L439.0 323.0L440.0 323.0L440.0 322.0L441.0 322.0L442.0 320.0L444.0 320.0L444.0 319.0L445.0 319.0L445.0 318.0L446.0 318.0L446.0 317.0L448.0 316.0L448.0 314.0L449.0 314.0L449.0 313.0L450.0 313.0L450.0 312.0L452.0 311.0L452.0 309.0L454.0 308.0L454.0 306.0L455.0 306.0L455.0 304.0L456.0 304.0L457.0 300.0L459.0 299.0L459.0 296.0L460.0 296.0L460.0 294.0L461.0 294.0L461.0 291.0L462.0 291.0L462.0 289.0L463.0 289.0L463.0 285.0L464.0 285.0L464.0 282.0L465.0 282.0L465.0 277.0L466.0 277.0L466.0 272.0L467.0 272.0L467.0 264.0L468.0 264.0L468.0 132.0L485.0 132.0L485.0 348.0L469.0 348.0L469.0 315.0L468.0 315.0L468.0 317.0L466.0 318.0L466.0 320.0L465.0 320.0L465.0 321.0L464.0 321.0L464.0 322.0L462.0 323.0L462.0 325.0L461.0 325.0L461.0 326.0L460.0 326.0L460.0 327.0L459.0 327.0L459.0 328.0L458.0 328.0L458.0 329.0L457.0 329.0L457.0 330.0L456.0 330.0L456.0 331.0L455.0 331.0L455.0 332.0L454.0 332.0L453.0 334.0L451.0 334.0L451.0 335.0L450.0 335.0L450.0 336.0L449.0 336.0L448.0 338.0L444.0 339.0L443.0 341.0L441.0 341.0L441.0 342.0L439.0 342.0L439.0 343.0L437.0 343.0L437.0 344.0L435.0 344.0L435.0 345.0L433.0 345.0L433.0 346.0L430.0 346.0L430.0 347.0L427.0 347.0L427.0 348.0L421.0 349.0L421.0 350.0L417.0 350.0L417.0 351.0L411.0 351.0L411.0 352.0L403.0 352.0L403.0 353.0L386.0 353.0L386.0 352.0L378.0 352.0L378.0 351.0L373.0 351.0L373.0 350.0L369.0 350.0L369.0 349.0L366.0 349.0L366.0 348.0L360.0 347.0L360.0 346.0L358.0 346.0L358.0 345.0L356.0 345.0L356.0 344.0L354.0 344.0L354.0 343.0L350.0 342.0L350.0 341.0L349.0 341.0L349.0 340.0L347.0 340.0L346.0 338.0L344.0 338.0L344.0 337.0L343.0 337.0L342.0 335.0L340.0 335.0L340.0 334.0L339.0 334.0L339.0 333.0L338.0 333.0L338.0 332.0L337.0 332.0L337.0 331.0L336.0 331.0L336.0 330.0L335.0 330.0L335.0 329.0L334.0 329.0L334.0 328.0L333.0 328.0L333.0 327.0L332.0 327.0L332.0 326.0L330.0 325.0L330.0 323.0L329.0 323.0L329.0 322.0L327.0 321.0L327.0 319.0L326.0 319.0L326.0 318.0L325.0 318.0L325.0 316.0L323.0 315.0L323.0 313.0L322.0 313.0L322.0 311.0L321.0 311.0L321.0 309.0L320.0 309.0L320.0 307.0L319.0 307.0L319.0 305.0L318.0 305.0L318.0 303.0L317.0 303.0L317.0 300.0L316.0 300.0L316.0 297.0L315.0 297.0L315.0 294.0L314.0 294.0L314.0 291.0L313.0 291.0L313.0 288.0L312.0 288.0L312.0 284.0L311.0 284.0L311.0 279.0L310.0 279.0L310.0 273.0L309.0 273.0L309.0 264.0L308.0 264.0L308.0 132.0ZM1750.0 132.0L1767.0 132.0L1767.0 348.0L1750.0 348.0L1750.0 132.0ZM735.0 143.0L734.0 143.0L734.0 144.0L727.0 144.0L727.0 145.0L719.0 146.0L719.0 147.0L716.0 147.0L716.0 148.0L714.0 148.0L714.0 149.0L711.0 149.0L711.0 150.0L709.0 150.0L708.0 152.0L704.0 153.0L703.0 155.0L701.0 155.0L701.0 156.0L700.0 156.0L700.0 157.0L699.0 157.0L698.0 159.0L696.0 159.0L696.0 160.0L695.0 160.0L695.0 161.0L694.0 161.0L694.0 162.0L693.0 162.0L693.0 163.0L692.0 163.0L692.0 164.0L690.0 165.0L690.0 167.0L689.0 167.0L689.0 168.0L688.0 168.0L688.0 169.0L686.0 170.0L686.0 172.0L685.0 172.0L685.0 173.0L684.0 173.0L684.0 175.0L682.0 176.0L682.0 178.0L681.0 178.0L681.0 180.0L680.0 180.0L680.0 182.0L679.0 182.0L679.0 184.0L678.0 184.0L678.0 186.0L677.0 186.0L677.0 188.0L676.0 188.0L676.0 190.0L675.0 190.0L675.0 193.0L674.0 193.0L674.0 196.0L673.0 196.0L673.0 199.0L672.0 199.0L672.0 203.0L671.0 203.0L671.0 207.0L670.0 207.0L670.0 212.0L669.0 212.0L669.0 218.0L668.0 218.0L668.0 226.0L667.0 226.0L667.0 254.0L668.0 254.0L668.0 262.0L669.0 262.0L669.0 268.0L670.0 268.0L670.0 273.0L671.0 273.0L671.0 277.0L672.0 277.0L672.0 281.0L673.0 281.0L673.0 284.0L674.0 284.0L675.0 290.0L676.0 290.0L676.0 292.0L677.0 292.0L677.0 294.0L678.0 294.0L678.0 296.0L679.0 296.0L679.0 298.0L680.0 298.0L681.0 302.0L683.0 303.0L684.0 307.0L685.0 307.0L685.0 308.0L687.0 309.0L687.0 311.0L688.0 311.0L688.0 312.0L689.0 312.0L689.0 313.0L690.0 313.0L690.0 314.0L692.0 315.0L692.0 317.0L693.0 317.0L693.0 318.0L695.0 318.0L695.0 319.0L696.0 319.0L696.0 320.0L697.0 320.0L697.0 321.0L698.0 321.0L698.0 322.0L699.0 322.0L700.0 324.0L702.0 324.0L703.0 326.0L707.0 327.0L708.0 329.0L710.0 329.0L710.0 330.0L712.0 330.0L712.0 331.0L715.0 331.0L715.0 332.0L717.0 332.0L717.0 333.0L720.0 333.0L720.0 334.0L724.0 334.0L724.0 335.0L728.0 335.0L728.0 336.0L735.0 336.0L735.0 337.0L753.0 337.0L753.0 336.0L760.0 336.0L760.0 335.0L768.0 334.0L768.0 333.0L770.0 333.0L770.0 332.0L773.0 332.0L773.0 331.0L775.0 331.0L775.0 330.0L779.0 329.0L780.0 327.0L784.0 326.0L784.0 325.0L785.0 325.0L785.0 324.0L786.0 324.0L787.0 322.0L789.0 322.0L789.0 321.0L790.0 321.0L790.0 320.0L791.0 320.0L791.0 319.0L792.0 319.0L792.0 318.0L793.0 318.0L793.0 317.0L794.0 317.0L794.0 316.0L796.0 315.0L796.0 313.0L797.0 313.0L797.0 312.0L798.0 312.0L798.0 311.0L799.0 311.0L799.0 310.0L801.0 309.0L802.0 305.0L803.0 305.0L803.0 304.0L804.0 304.0L804.0 302.0L806.0 301.0L806.0 299.0L807.0 299.0L807.0 296.0L808.0 296.0L808.0 294.0L809.0 294.0L809.0 292.0L810.0 292.0L810.0 290.0L811.0 290.0L811.0 287.0L812.0 287.0L812.0 284.0L813.0 284.0L814.0 278.0L815.0 278.0L815.0 274.0L816.0 274.0L816.0 269.0L817.0 269.0L817.0 264.0L818.0 264.0L818.0 256.0L819.0 256.0L819.0 222.0L818.0 222.0L818.0 214.0L817.0 214.0L816.0 204.0L815.0 204.0L815.0 200.0L814.0 200.0L814.0 197.0L813.0 197.0L813.0 194.0L812.0 194.0L811.0 188.0L810.0 188.0L810.0 186.0L809.0 186.0L809.0 184.0L808.0 184.0L808.0 182.0L807.0 182.0L807.0 180.0L806.0 180.0L805.0 176.0L804.0 176.0L804.0 175.0L803.0 175.0L803.0 173.0L801.0 172.0L801.0 170.0L800.0 170.0L800.0 169.0L799.0 169.0L799.0 168.0L798.0 168.0L798.0 167.0L796.0 166.0L796.0 164.0L795.0 164.0L795.0 163.0L794.0 163.0L794.0 162.0L793.0 162.0L792.0 160.0L790.0 160.0L790.0 159.0L789.0 159.0L789.0 158.0L788.0 158.0L788.0 157.0L787.0 157.0L786.0 155.0L782.0 154.0L782.0 153.0L781.0 153.0L781.0 152.0L779.0 152.0L778.0 150.0L775.0 150.0L775.0 149.0L773.0 149.0L773.0 148.0L770.0 148.0L770.0 147.0L768.0 147.0L768.0 146.0L764.0 146.0L764.0 145.0L759.0 145.0L759.0 144.0L752.0 144.0L752.0 143.0L735.0 143.0ZM1412.0 143.0L1411.0 143.0L1411.0 144.0L1404.0 144.0L1404.0 145.0L1396.0 146.0L1396.0 147.0L1390.0 148.0L1390.0 149.0L1388.0 149.0L1388.0 150.0L1386.0 150.0L1386.0 151.0L1384.0 151.0L1384.0 152.0L1380.0 153.0L1379.0 155.0L1377.0 155.0L1376.0 157.0L1374.0 157.0L1374.0 158.0L1373.0 158.0L1373.0 159.0L1372.0 159.0L1372.0 160.0L1371.0 160.0L1370.0 162.0L1368.0 162.0L1368.0 164.0L1367.0 164.0L1367.0 165.0L1366.0 165.0L1366.0 166.0L1365.0 166.0L1365.0 167.0L1364.0 167.0L1364.0 168.0L1363.0 168.0L1363.0 169.0L1361.0 170.0L1361.0 172.0L1360.0 172.0L1360.0 173.0L1358.0 174.0L1357.0 178.0L1355.0 179.0L1355.0 181.0L1354.0 181.0L1354.0 183.0L1353.0 183.0L1353.0 185.0L1352.0 185.0L1352.0 187.0L1351.0 187.0L1351.0 190.0L1350.0 190.0L1350.0 192.0L1349.0 192.0L1349.0 195.0L1348.0 195.0L1348.0 198.0L1347.0 198.0L1347.0 201.0L1346.0 201.0L1346.0 205.0L1345.0 205.0L1345.0 210.0L1344.0 210.0L1344.0 216.0L1343.0 216.0L1343.0 224.0L1342.0 224.0L1342.0 228.0L1502.0 228.0L1502.0 223.0L1501.0 223.0L1501.0 215.0L1500.0 215.0L1500.0 209.0L1499.0 209.0L1499.0 205.0L1498.0 205.0L1498.0 201.0L1497.0 201.0L1497.0 197.0L1496.0 197.0L1496.0 195.0L1495.0 195.0L1494.0 189.0L1493.0 189.0L1493.0 187.0L1492.0 187.0L1492.0 185.0L1491.0 185.0L1491.0 183.0L1490.0 183.0L1490.0 181.0L1489.0 181.0L1488.0 177.0L1487.0 177.0L1487.0 176.0L1486.0 176.0L1486.0 174.0L1484.0 173.0L1484.0 171.0L1483.0 171.0L1483.0 170.0L1482.0 170.0L1482.0 169.0L1480.0 168.0L1480.0 166.0L1479.0 166.0L1479.0 165.0L1478.0 165.0L1478.0 164.0L1477.0 164.0L1477.0 163.0L1476.0 163.0L1476.0 162.0L1475.0 162.0L1474.0 160.0L1472.0 160.0L1472.0 159.0L1471.0 159.0L1471.0 158.0L1470.0 158.0L1469.0 156.0L1467.0 156.0L1466.0 154.0L1464.0 154.0L1464.0 153.0L1462.0 153.0L1462.0 152.0L1460.0 152.0L1460.0 151.0L1458.0 151.0L1458.0 150.0L1456.0 150.0L1456.0 149.0L1454.0 149.0L1454.0 148.0L1448.0 147.0L1448.0 146.0L1444.0 146.0L1444.0 145.0L1440.0 145.0L1440.0 144.0L1433.0 144.0L1433.0 143.0L1412.0 143.0ZM1889.0 143.0L1888.0 143.0L1888.0 144.0L1881.0 144.0L1881.0 145.0L1876.0 145.0L1876.0 146.0L1872.0 146.0L1872.0 147.0L1870.0 147.0L1870.0 148.0L1867.0 148.0L1867.0 149.0L1865.0 149.0L1865.0 150.0L1861.0 151.0L1860.0 153.0L1856.0 154.0L1856.0 155.0L1855.0 155.0L1854.0 157.0L1852.0 157.0L1852.0 158.0L1851.0 158.0L1851.0 159.0L1850.0 159.0L1850.0 160.0L1849.0 160.0L1849.0 161.0L1848.0 161.0L1848.0 162.0L1847.0 162.0L1847.0 163.0L1846.0 163.0L1846.0 164.0L1845.0 164.0L1845.0 165.0L1843.0 166.0L1843.0 168.0L1842.0 168.0L1842.0 169.0L1841.0 169.0L1841.0 170.0L1839.0 171.0L1838.0 175.0L1837.0 175.0L1837.0 176.0L1836.0 176.0L1836.0 178.0L1834.0 179.0L1834.0 182.0L1833.0 182.0L1833.0 184.0L1832.0 184.0L1832.0 186.0L1831.0 186.0L1831.0 188.0L1830.0 188.0L1830.0 191.0L1829.0 191.0L1829.0 194.0L1828.0 194.0L1828.0 197.0L1827.0 197.0L1827.0 200.0L1826.0 200.0L1826.0 204.0L1825.0 204.0L1825.0 209.0L1824.0 209.0L1824.0 213.0L1823.0 213.0L1823.0 221.0L1822.0 221.0L1822.0 235.0L1821.0 235.0L1821.0 244.0L1822.0 244.0L1822.0 259.0L1823.0 259.0L1823.0 266.0L1824.0 266.0L1824.0 271.0L1825.0 271.0L1825.0 275.0L1826.0 275.0L1827.0 283.0L1828.0 283.0L1829.0 289.0L1830.0 289.0L1830.0 291.0L1831.0 291.0L1831.0 293.0L1832.0 293.0L1832.0 295.0L1833.0 295.0L1833.0 297.0L1834.0 297.0L1834.0 300.0L1835.0 300.0L1835.0 301.0L1836.0 301.0L1836.0 303.0L1838.0 304.0L1839.0 308.0L1840.0 308.0L1840.0 309.0L1841.0 309.0L1841.0 310.0L1843.0 311.0L1843.0 313.0L1844.0 313.0L1844.0 314.0L1845.0 314.0L1845.0 315.0L1846.0 315.0L1846.0 316.0L1847.0 316.0L1847.0 317.0L1848.0 317.0L1848.0 318.0L1849.0 318.0L1849.0 319.0L1850.0 319.0L1850.0 320.0L1851.0 320.0L1851.0 321.0L1852.0 321.0L1853.0 323.0L1855.0 323.0L1856.0 325.0L1858.0 325.0L1858.0 326.0L1859.0 326.0L1859.0 327.0L1861.0 327.0L1862.0 329.0L1864.0 329.0L1864.0 330.0L1866.0 330.0L1866.0 331.0L1869.0 331.0L1869.0 332.0L1871.0 332.0L1871.0 333.0L1877.0 334.0L1877.0 335.0L1882.0 335.0L1882.0 336.0L1889.0 336.0L1889.0 337.0L1906.0 337.0L1906.0 336.0L1913.0 336.0L1913.0 335.0L1918.0 335.0L1918.0 334.0L1922.0 334.0L1922.0 333.0L1924.0 333.0L1924.0 332.0L1927.0 332.0L1927.0 331.0L1929.0 331.0L1929.0 330.0L1931.0 330.0L1931.0 329.0L1935.0 328.0L1935.0 327.0L1936.0 327.0L1936.0 326.0L1938.0 326.0L1938.0 325.0L1939.0 325.0L1940.0 323.0L1942.0 323.0L1942.0 322.0L1943.0 322.0L1943.0 321.0L1944.0 321.0L1944.0 320.0L1945.0 320.0L1945.0 319.0L1946.0 319.0L1946.0 318.0L1947.0 318.0L1947.0 317.0L1948.0 317.0L1948.0 316.0L1949.0 316.0L1949.0 315.0L1950.0 315.0L1950.0 314.0L1951.0 314.0L1951.0 313.0L1953.0 312.0L1953.0 310.0L1954.0 310.0L1954.0 309.0L1956.0 308.0L1957.0 304.0L1959.0 303.0L1959.0 301.0L1960.0 301.0L1960.0 299.0L1961.0 299.0L1961.0 297.0L1962.0 297.0L1962.0 295.0L1963.0 295.0L1963.0 293.0L1964.0 293.0L1964.0 291.0L1965.0 291.0L1965.0 288.0L1966.0 288.0L1966.0 285.0L1967.0 285.0L1967.0 282.0L1968.0 282.0L1968.0 279.0L1969.0 279.0L1969.0 276.0L1970.0 276.0L1970.0 271.0L1971.0 271.0L1971.0 267.0L1972.0 267.0L1972.0 259.0L1973.0 259.0L1973.0 249.0L1974.0 249.0L1974.0 230.0L1973.0 230.0L1973.0 219.0L1972.0 219.0L1972.0 212.0L1971.0 212.0L1971.0 207.0L1970.0 207.0L1970.0 203.0L1969.0 203.0L1969.0 199.0L1968.0 199.0L1968.0 196.0L1967.0 196.0L1966.0 190.0L1965.0 190.0L1965.0 188.0L1964.0 188.0L1964.0 186.0L1963.0 186.0L1963.0 184.0L1962.0 184.0L1962.0 182.0L1961.0 182.0L1961.0 179.0L1959.0 178.0L1959.0 176.0L1957.0 175.0L1957.0 173.0L1955.0 172.0L1955.0 170.0L1954.0 170.0L1954.0 169.0L1953.0 169.0L1953.0 168.0L1952.0 168.0L1952.0 167.0L1950.0 166.0L1950.0 164.0L1949.0 164.0L1949.0 163.0L1948.0 163.0L1947.0 161.0L1945.0 161.0L1945.0 160.0L1944.0 160.0L1944.0 159.0L1943.0 159.0L1943.0 158.0L1942.0 158.0L1942.0 157.0L1941.0 157.0L1940.0 155.0L1938.0 155.0L1938.0 154.0L1934.0 153.0L1933.0 151.0L1931.0 151.0L1931.0 150.0L1929.0 150.0L1929.0 149.0L1926.0 149.0L1926.0 148.0L1924.0 148.0L1924.0 147.0L1921.0 147.0L1921.0 146.0L1918.0 146.0L1918.0 145.0L1913.0 145.0L1913.0 144.0L1906.0 144.0L1906.0 143.0L1889.0 143.0Z"></path></g>
  </g>
</svg>